<svg xmlns="http://www.w3.org/2000/svg" width="200" height="22" viewBox="0 0 200 22" fill="none"><path d="M0.437737 21.7356C0.145912 21.7356 0 21.6279 0 21.4125C0 21.2363 0.126457 21.1188 0.379372 21.0601L1.05057 20.9426C1.45912 20.8643 1.72176 20.7566 1.83849 20.6195C1.97468 20.4824 2.04277 20.2083 2.04277 19.7971V2.52603C2.04277 2.11482 1.97468 1.84068 1.83849 1.7036C1.72176 1.56653 1.45912 1.45883 1.05057 1.38051L0.379372 1.26302C0.126457 1.20427 0 1.08678 0 0.910546C0 0.695148 0.145912 0.587449 0.437737 0.587449H6.36177C7.33452 0.587449 8.20026 0.793057 8.95901 1.20427C9.71775 1.61549 10.3111 2.17356 10.7391 2.8785C11.1866 3.58344 11.4103 4.38629 11.4103 5.28705C11.4103 6.16822 11.1477 6.99065 10.6224 7.75434C10.1166 8.49844 9.37729 9.12506 8.40454 9.63418C8.28781 9.69292 8.22945 9.77125 8.22945 9.86916C8.22945 9.96707 8.29754 10.0356 8.43373 10.0748C9.75666 10.5251 10.778 11.2497 11.4979 12.2483C12.2177 13.2274 12.5776 14.3925 12.5776 15.7437C12.5776 16.899 12.315 17.9368 11.7897 18.8571C11.2644 19.7579 10.5349 20.4628 9.60102 20.972C8.68664 21.4811 7.6458 21.7356 6.4785 21.7356H0.437737ZM5.66139 9.66355C6.69251 9.66355 7.54852 9.26213 8.22945 8.45928C8.92983 7.63685 9.28002 6.6186 9.28002 5.40454C9.28002 4.19048 8.94928 3.21139 8.28781 2.46729C7.62634 1.7036 6.75087 1.32176 5.66139 1.32176C4.63028 1.32176 4.11472 1.71339 4.11472 2.49666V8.04806C4.11472 8.61593 4.23145 9.02715 4.46491 9.28171C4.71783 9.53627 5.11665 9.66355 5.66139 9.66355ZM6.09913 21.0013C7.3637 21.0013 8.39482 20.5216 9.19247 19.5621C9.99012 18.583 10.3889 17.2808 10.3889 15.6555C10.3889 14.0303 9.9804 12.7477 9.16329 11.8077C8.36563 10.8678 7.28588 10.3979 5.92404 10.3979C4.71783 10.3979 4.11472 10.8776 4.11472 11.8371V18.9746C4.11472 20.3258 4.77619 21.0013 6.09913 21.0013Z" fill="#7C7559"></path><path d="M16.2995 22C15.4824 22 14.8112 21.7454 14.2859 21.2363C13.7607 20.7076 13.498 20.0125 13.498 19.1509C13.498 18.3089 13.7607 17.5158 14.2859 16.7717C14.8112 16.008 15.5311 15.3227 16.4454 14.7156C17.3598 14.1086 18.4007 13.619 19.568 13.247C19.8209 13.1687 19.9473 13.0022 19.9473 12.7477V10.0748C19.9473 9.13485 19.8014 8.46907 19.5096 8.07744C19.2178 7.66622 18.8189 7.46061 18.3131 7.46061C17.8267 7.46061 17.3793 7.6858 16.9707 8.13618C16.5816 8.56698 16.2995 9.30129 16.1244 10.3391C16.0272 10.9657 15.8132 11.4259 15.4824 11.7196C15.1711 11.9938 14.8501 12.1308 14.5194 12.1308C13.9747 12.1308 13.7023 11.8567 13.7023 11.3084C13.7023 10.7405 13.8579 10.1825 14.1692 9.63418C14.4999 9.06631 14.928 8.55719 15.4532 8.10681C15.9785 7.63685 16.5524 7.2648 17.175 6.99065C17.7976 6.71651 18.4201 6.57944 19.0427 6.57944C20.9687 6.57944 21.9317 7.70538 21.9317 9.95728V18.9453C21.9317 19.7677 22.136 20.1789 22.5446 20.1789C22.7975 20.1789 23.0309 20.0125 23.2449 19.6796C23.459 19.3271 23.566 18.7397 23.566 17.9172C23.566 17.6039 23.6924 17.4473 23.9453 17.4473C24.1788 17.4473 24.2955 17.6137 24.2955 17.9466C24.2955 19.3761 24.0426 20.4139 23.5368 21.0601C23.0504 21.6867 22.4959 22 21.8734 22C21.4065 22 21.0368 21.814 20.7644 21.4419C20.4921 21.0503 20.3073 20.5901 20.21 20.0614C20.1905 19.8656 20.103 19.7677 19.9473 19.7677C19.8112 19.7481 19.675 19.8362 19.5388 20.032C19.0719 20.6782 18.5952 21.1678 18.1088 21.5007C17.6225 21.8336 17.0194 22 16.2995 22ZM17.0875 20.6489C17.5933 20.6489 18.0602 20.4726 18.4882 20.1202C18.9162 19.7481 19.2664 19.2586 19.5388 18.6515C19.8111 18.0445 19.9473 17.3591 19.9473 16.5955V14.4513C19.9473 14.0792 19.7431 13.9715 19.3345 14.1282C18.1478 14.559 17.2236 15.1562 16.5622 15.9199C15.9202 16.664 15.5992 17.5648 15.5992 18.6222C15.5992 19.9733 16.0953 20.6489 17.0875 20.6489Z" fill="#7C7559"></path><path d="M24.4535 21.7356C24.2201 21.7356 24.1033 21.6279 24.1033 21.4125C24.1033 21.2167 24.2103 21.0992 24.4243 21.0601L24.8329 21.0013C25.2414 20.9426 25.543 20.8251 25.7375 20.6489C25.9321 20.4726 26.0294 20.1789 26.0294 19.7677V2.93725C26.0294 2.58478 25.971 2.34001 25.8543 2.20294C25.757 2.06586 25.5722 1.98754 25.2998 1.96796L24.6286 1.87984C24.4146 1.84068 24.3076 1.72319 24.3076 1.52737C24.3076 1.33155 24.4146 1.21406 24.6286 1.1749C25.1734 1.05741 25.6403 0.920337 26.0294 0.763684C26.4185 0.60703 26.7395 0.450377 26.9924 0.293725C27.3037 0.0979082 27.5371 0 27.6928 0C27.9068 0 28.0138 0.156653 28.0138 0.469959V19.7677C28.0138 20.1789 28.0721 20.4726 28.1889 20.6489C28.3251 20.8055 28.5974 20.9132 29.006 20.972L29.6772 21.0601C29.8912 21.0992 29.9982 21.2167 29.9982 21.4125C29.9982 21.6279 29.8815 21.7356 29.648 21.7356H24.4535Z" fill="#7C7559"></path><path d="M33.2003 22C32.3832 22 31.712 21.7454 31.1867 21.2363C30.6614 20.7076 30.3987 20.0125 30.3987 19.1509C30.3987 18.3089 30.6614 17.5158 31.1867 16.7717C31.712 16.008 32.4318 15.3227 33.3462 14.7156C34.2606 14.1086 35.3014 13.619 36.4687 13.247C36.7216 13.1687 36.8481 13.0022 36.8481 12.7477V10.0748C36.8481 9.13485 36.7022 8.46907 36.4103 8.07744C36.1185 7.66622 35.7197 7.46061 35.2138 7.46061C34.7275 7.46061 34.28 7.6858 33.8715 8.13618C33.4824 8.56698 33.2003 9.30129 33.0252 10.3391C32.9279 10.9657 32.7139 11.4259 32.3832 11.7196C32.0719 11.9938 31.7509 12.1308 31.4201 12.1308C30.8754 12.1308 30.603 11.8567 30.603 11.3084C30.603 10.7405 30.7587 10.1825 31.0699 9.63418C31.4007 9.06631 31.8287 8.55719 32.354 8.10681C32.8793 7.63685 33.4532 7.2648 34.0757 6.99065C34.6983 6.71651 35.3209 6.57944 35.9434 6.57944C37.8694 6.57944 38.8325 7.70538 38.8325 9.95728V18.9453C38.8325 19.7677 39.0368 20.1789 39.4453 20.1789C39.6982 20.1789 39.9317 20.0125 40.1457 19.6796C40.3597 19.3271 40.4667 18.7397 40.4667 17.9172C40.4667 17.6039 40.5931 17.4473 40.8461 17.4473C41.0795 17.4473 41.1963 17.6137 41.1963 17.9466C41.1963 19.3761 40.9433 20.4139 40.4375 21.0601C39.9511 21.6867 39.3967 22 38.7741 22C38.3072 22 37.9375 21.814 37.6652 21.4419C37.3928 21.0503 37.208 20.5901 37.1107 20.0614C37.0913 19.8656 37.0037 19.7677 36.8481 19.7677C36.7119 19.7481 36.5757 19.8362 36.4395 20.032C35.9726 20.6782 35.4959 21.1678 35.0096 21.5007C34.5232 21.8336 33.9201 22 33.2003 22ZM33.9882 20.6489C34.494 20.6489 34.9609 20.4726 35.3889 20.1202C35.817 19.7481 36.1671 19.2586 36.4395 18.6515C36.7119 18.0445 36.8481 17.3591 36.8481 16.5955V14.4513C36.8481 14.0792 36.6438 13.9715 36.2352 14.1282C35.0485 14.559 34.1244 15.1562 33.4629 15.9199C32.8209 16.664 32.4999 17.5648 32.4999 18.6222C32.4999 19.9733 32.996 20.6489 33.9882 20.6489Z" fill="#7C7559"></path><path d="M41.5585 21.7356C41.3251 21.7356 41.2083 21.6279 41.2083 21.4125C41.2083 21.2167 41.3153 21.0992 41.5293 21.0601L41.9379 21.0013C42.3465 20.9426 42.6091 20.8251 42.7258 20.6489C42.862 20.4726 42.9301 20.1789 42.9301 19.7677V2.93725C42.9301 2.58478 42.8717 2.3498 42.755 2.23231C42.6577 2.09524 42.4729 2.00712 42.2005 1.96796L41.5877 1.87984C41.3737 1.84068 41.2667 1.72319 41.2667 1.52737C41.2667 1.33155 41.3737 1.21406 41.5877 1.1749C42.1325 1.05741 42.5896 0.920337 42.9593 0.763684C43.3289 0.60703 43.6402 0.450377 43.8931 0.293725C44.2044 0.0979082 44.4379 0 44.5935 0C44.8075 0 44.9145 0.156653 44.9145 0.469959V12.777C44.9145 12.9729 44.9923 13.1001 45.148 13.1589C45.3231 13.198 45.4884 13.1295 45.6441 12.9533L49.0584 9.25234C49.467 8.80196 49.6323 8.42991 49.5545 8.13618C49.4962 7.82287 49.2724 7.62706 48.8833 7.54873L48.2121 7.43124C47.9592 7.3725 47.8328 7.24522 47.8328 7.0494C47.8328 6.85358 47.9689 6.75567 48.2413 6.75567H53.2607C53.5331 6.75567 53.6692 6.86337 53.6692 7.07877C53.6692 7.29417 53.5428 7.41166 53.2899 7.43124L53.0272 7.46061C52.5798 7.49978 52.1323 7.67601 51.6848 7.98932C51.2374 8.28304 50.7024 8.753 50.0798 9.3992L48.2705 11.3378C47.8619 11.7882 47.7647 12.2287 47.9787 12.6595L51.6557 19.7677C51.8697 20.1593 52.1031 20.4433 52.356 20.6195C52.609 20.7957 52.9202 20.923 53.2899 21.0013L53.5817 21.0601C53.8152 21.1188 53.9319 21.2363 53.9319 21.4125C53.9319 21.6279 53.7957 21.7356 53.5233 21.7356H48.4456C48.1732 21.7356 48.037 21.6279 48.037 21.4125C48.037 21.2167 48.1635 21.0992 48.4164 21.0601L48.9125 21.0013C49.6518 20.9034 49.8074 20.4237 49.3794 19.5621L46.6071 14.1282C46.5098 13.9324 46.3639 13.8247 46.1694 13.8051C45.9943 13.7855 45.8289 13.854 45.6733 14.0107L45.3522 14.3338C45.1772 14.51 45.0604 14.6862 45.0021 14.8625C44.9437 15.0387 44.9145 15.2345 44.9145 15.4499V19.7677C44.9145 20.1789 44.9729 20.4726 45.0896 20.6489C45.2258 20.8251 45.4982 20.9328 45.9067 20.972L46.6946 21.0601C46.9086 21.0992 47.0156 21.2167 47.0156 21.4125C47.0156 21.6279 46.8989 21.7356 46.6655 21.7356H41.5585Z" fill="#7C7559"></path><path d="M53.7992 21.7356C53.5657 21.7356 53.449 21.6279 53.449 21.4125C53.449 21.2167 53.556 21.0992 53.77 21.0601L54.1786 21.0013C54.5871 20.9426 54.8498 20.8251 54.9665 20.6489C55.1027 20.4726 55.1708 20.1789 55.1708 19.7677V2.93725C55.1708 2.58478 55.1124 2.3498 54.9957 2.23231C54.8984 2.09524 54.7136 2.00712 54.4412 1.96796L53.8284 1.87984C53.6144 1.84068 53.5074 1.72319 53.5074 1.52737C53.5074 1.33155 53.6144 1.21406 53.8284 1.1749C54.3731 1.05741 54.8303 0.920337 55.2 0.763684C55.5696 0.60703 55.8809 0.450377 56.1338 0.293725C56.4451 0.0979082 56.6785 0 56.8342 0C57.0482 0 57.1552 0.156653 57.1552 0.469959V8.25367C57.1552 8.42991 57.2135 8.53761 57.3303 8.57677C57.447 8.59635 57.5929 8.52781 57.768 8.37116C58.5073 7.6858 59.159 7.21584 59.7232 6.96128C60.2874 6.70672 60.8808 6.57944 61.5034 6.57944C62.4177 6.57944 63.1376 6.89275 63.6629 7.51936C64.1881 8.12639 64.4508 9.02715 64.4508 10.2216V19.7677C64.4508 20.1789 64.5091 20.4726 64.6259 20.6489C64.7621 20.8055 65.0344 20.9132 65.443 20.972L66.085 21.0601C66.299 21.0992 66.406 21.2167 66.406 21.4125C66.406 21.6279 66.2893 21.7356 66.0558 21.7356H61.1532C60.8808 21.7356 60.7446 21.6279 60.7446 21.4125C60.7446 21.2167 60.8516 21.0992 61.0656 21.0601L61.4742 21.0013C61.8827 20.9426 62.1454 20.8251 62.2621 20.6489C62.3983 20.4726 62.4664 20.1789 62.4664 19.7677V10.5447C62.4664 9.58522 62.2913 8.90966 61.9411 8.51802C61.5909 8.12639 61.0948 7.93057 60.4528 7.93057C59.8302 7.93057 59.266 8.1166 58.7602 8.48865C58.2738 8.84112 57.8847 9.32087 57.5929 9.9279C57.3011 10.5154 57.1552 11.1713 57.1552 11.8959V19.7677C57.1552 20.1789 57.2135 20.4726 57.3303 20.6489C57.4665 20.8251 57.7388 20.9328 58.1474 20.972L58.9353 21.0601C59.1493 21.0992 59.2563 21.2167 59.2563 21.4125C59.2563 21.6279 59.1396 21.7356 58.9061 21.7356H53.7992Z" fill="#7C7559"></path><path d="M69.6373 22C68.8202 22 68.149 21.7454 67.6237 21.2363C67.0984 20.7076 66.8358 20.0125 66.8358 19.1509C66.8358 18.3089 67.0984 17.5158 67.6237 16.7717C68.149 16.008 68.8688 15.3227 69.7832 14.7156C70.6976 14.1086 71.7384 13.619 72.9057 13.247C73.1586 13.1687 73.2851 13.0022 73.2851 12.7477V10.0748C73.2851 9.13485 73.1392 8.46907 72.8473 8.07744C72.5555 7.66622 72.1567 7.46061 71.6509 7.46061C71.1645 7.46061 70.717 7.6858 70.3085 8.13618C69.9194 8.56698 69.6373 9.30129 69.4622 10.3391C69.3649 10.9657 69.1509 11.4259 68.8202 11.7196C68.5089 11.9938 68.1879 12.1308 67.8571 12.1308C67.3124 12.1308 67.04 11.8567 67.04 11.3084C67.04 10.7405 67.1957 10.1825 67.507 9.63418C67.8377 9.06631 68.2657 8.55719 68.791 8.10681C69.3163 7.63685 69.8902 7.2648 70.5127 6.99065C71.1353 6.71651 71.7579 6.57944 72.3804 6.57944C74.3065 6.57944 75.2695 7.70538 75.2695 9.95728V18.9453C75.2695 19.7677 75.4738 20.1789 75.8823 20.1789C76.1352 20.1789 76.3687 20.0125 76.5827 19.6796C76.7967 19.3271 76.9037 18.7397 76.9037 17.9172C76.9037 17.6039 77.0302 17.4473 77.2831 17.4473C77.5165 17.4473 77.6333 17.6137 77.6333 17.9466C77.6333 19.3761 77.3803 20.4139 76.8745 21.0601C76.3881 21.6867 75.8337 22 75.2111 22C74.7442 22 74.3746 21.814 74.1022 21.4419C73.8298 21.0503 73.645 20.5901 73.5477 20.0614C73.5283 19.8656 73.4407 19.7677 73.2851 19.7677C73.1489 19.7481 73.0127 19.8362 72.8765 20.032C72.4096 20.6782 71.933 21.1678 71.4466 21.5007C70.9602 21.8336 70.3571 22 69.6373 22ZM70.4252 20.6489C70.931 20.6489 71.3979 20.4726 71.826 20.1202C72.254 19.7481 72.6042 19.2586 72.8765 18.6515C73.1489 18.0445 73.2851 17.3591 73.2851 16.5955V14.4513C73.2851 14.0792 73.0808 13.9715 72.6722 14.1282C71.4855 14.559 70.5614 15.1562 69.8999 15.9199C69.2579 16.664 68.9369 17.5648 68.9369 18.6222C68.9369 19.9733 69.433 20.6489 70.4252 20.6489Z" fill="#7C7559"></path><path d="M78.0831 21.7356C77.7913 21.7356 77.6454 21.6279 77.6454 21.4125C77.6454 21.2363 77.7718 21.1188 78.0247 21.0601L78.3749 21.0013C78.7835 20.923 79.0461 20.8055 79.1628 20.6489C79.299 20.4726 79.3671 20.1789 79.3671 19.7677V9.89853C79.3671 9.54606 79.3088 9.31108 79.192 9.19359C79.0947 9.05652 78.9099 8.9684 78.6376 8.92924L78.0247 8.84112C77.7718 8.82154 77.6454 8.71384 77.6454 8.51802C77.6454 8.36137 77.801 8.25367 78.1123 8.19493C78.7154 8.09702 79.1726 7.94036 79.4838 7.72497C79.8146 7.50957 80.155 7.24522 80.5052 6.93191C80.6803 6.75567 80.8262 6.66756 80.943 6.66756C81.1181 6.66756 81.2056 6.78505 81.2056 7.02003V8.34179C81.2056 8.51802 81.264 8.63551 81.3807 8.69426C81.5169 8.73342 81.6628 8.67468 81.8184 8.51802C82.5966 7.77392 83.2776 7.2648 83.8612 6.99065C84.4643 6.71651 85.0966 6.57944 85.7581 6.57944C86.6335 6.57944 87.3339 6.89275 87.8592 7.51936C88.3845 8.12639 88.6471 9.02715 88.6471 10.2216V19.7677C88.6471 20.1789 88.7055 20.4726 88.8222 20.6489C88.9584 20.8055 89.2308 20.9132 89.6393 20.972L90.2814 21.0601C90.4954 21.0992 90.6024 21.2167 90.6024 21.4125C90.6024 21.6279 90.4856 21.7356 90.2522 21.7356H85.3495C85.0772 21.7356 84.941 21.6279 84.941 21.4125C84.941 21.2167 85.048 21.0992 85.262 21.0601L85.6705 21.0013C86.0791 20.9426 86.3417 20.8251 86.4585 20.6489C86.5946 20.4726 86.6627 20.1789 86.6627 19.7677V10.5447C86.6627 9.58522 86.4876 8.90966 86.1375 8.51802C85.7873 8.12639 85.2912 7.93057 84.6491 7.93057C84.0266 7.93057 83.4624 8.1166 82.9566 8.48865C82.4702 8.84112 82.0811 9.32087 81.7893 9.9279C81.4974 10.5154 81.3515 11.1713 81.3515 11.8959V19.7677C81.3515 20.1789 81.4099 20.4726 81.5266 20.6489C81.6628 20.8251 81.9352 20.9328 82.3437 20.972L83.1317 21.0601C83.3457 21.0992 83.4527 21.2069 83.4527 21.3832C83.4527 21.6182 83.3067 21.7356 83.0149 21.7356H78.0831Z" fill="#7C7559"></path><path d="M95.9348 22C95.0009 22 94.1644 21.6867 93.4251 21.0601C92.6858 20.4335 92.0924 19.5523 91.6449 18.4166C91.2169 17.2612 91.0029 15.9297 91.0029 14.4219C91.0029 12.8749 91.2267 11.514 91.6741 10.3391C92.1216 9.16422 92.7344 8.24388 93.5126 7.5781C94.2908 6.91233 95.1566 6.57944 96.1098 6.57944C97.2577 6.57944 98.1818 7.05919 98.8822 8.01869C99.602 8.95861 99.9619 10.4958 99.9619 12.6302C99.9619 13.2764 99.7187 13.5995 99.2324 13.5995H93.6877C93.2986 13.5995 93.1041 13.8247 93.1041 14.275C93.1041 16.3507 93.4056 17.9074 94.0087 18.9453C94.6118 19.9831 95.3803 20.502 96.3141 20.502C97.0534 20.502 97.6565 20.2376 98.1234 19.7089C98.5904 19.1802 98.9697 18.2893 99.2616 17.036C99.3199 16.8207 99.4464 16.713 99.6409 16.713C99.8744 16.713 99.9619 16.9088 99.9036 17.3004C99.5923 19.0432 99.0962 20.267 98.4153 20.972C97.7343 21.6573 96.9075 22 95.9348 22ZM93.6002 12.8652H96.5476C97.4814 12.8652 97.9483 12.3756 97.9483 11.3965C97.9483 10.1237 97.7927 9.12506 97.4814 8.40053C97.1701 7.67601 96.7032 7.31375 96.0807 7.31375C95.3219 7.31375 94.6799 7.75434 94.1546 8.63551C93.6488 9.51669 93.3181 10.7699 93.1624 12.3952C93.1235 12.7085 93.2694 12.8652 93.6002 12.8652Z" fill="#7C7559"></path><path d="M113.689 21.4419C113.611 21.4419 113.524 21.4125 113.426 21.3538C113.329 21.2951 113.261 21.1678 113.222 20.972L108.816 2.96662C108.796 2.82955 108.738 2.7708 108.641 2.79039C108.543 2.79039 108.495 2.85892 108.495 2.99599L107.911 19.2096C107.892 19.7579 107.979 20.1789 108.174 20.4726C108.368 20.7468 108.709 20.923 109.195 21.0013L109.574 21.0601C109.827 21.0797 109.954 21.1972 109.954 21.4125C109.954 21.6279 109.808 21.7356 109.516 21.7356H105.343C105.051 21.7356 104.905 21.6279 104.905 21.4125C104.905 21.1972 105.032 21.0797 105.285 21.0601L105.664 21.0013C106.17 20.923 106.51 20.7468 106.685 20.4726C106.88 20.1789 106.987 19.7579 107.006 19.2096L107.59 2.52603C107.609 2.11482 107.551 1.84068 107.415 1.7036C107.279 1.56653 106.987 1.45883 106.539 1.38051L105.868 1.26302C105.615 1.20427 105.489 1.08678 105.489 0.910546C105.489 0.695148 105.635 0.587449 105.927 0.587449H109.428C110.032 0.587449 110.401 0.881174 110.537 1.46862L114.068 16.1255C114.107 16.2626 114.166 16.3311 114.244 16.3311C114.341 16.3311 114.399 16.2626 114.419 16.1255L118.096 1.32176C118.212 0.83222 118.524 0.587449 119.029 0.587449H122.473C122.765 0.587449 122.911 0.695148 122.911 0.910546C122.911 1.08678 122.784 1.20427 122.531 1.26302L121.86 1.38051C121.452 1.45883 121.179 1.56653 121.043 1.7036C120.907 1.84068 120.849 2.11482 120.868 2.52603L121.452 19.7971C121.471 20.2083 121.539 20.4824 121.656 20.6195C121.773 20.7566 122.035 20.8643 122.444 20.9426L123.115 21.0601C123.368 21.1188 123.494 21.2363 123.494 21.4125C123.494 21.6279 123.348 21.7356 123.057 21.7356H117.775C117.483 21.7356 117.337 21.6279 117.337 21.4125C117.337 21.2363 117.463 21.1188 117.716 21.0601L118.387 20.9426C118.796 20.8643 119.068 20.7566 119.205 20.6195C119.341 20.4824 119.399 20.2083 119.38 19.7971L118.884 2.99599C118.884 2.85892 118.835 2.79039 118.738 2.79039C118.66 2.7708 118.601 2.81976 118.563 2.93725L114.127 20.972C114.088 21.1678 114.02 21.2951 113.923 21.3538C113.845 21.4125 113.767 21.4419 113.689 21.4419Z" fill="#7C7559"></path><path d="M128.638 22C127.705 22 126.868 21.6867 126.129 21.0601C125.389 20.4335 124.796 19.5523 124.349 18.4166C123.921 17.2612 123.707 15.9297 123.707 14.4219C123.707 12.8749 123.93 11.514 124.378 10.3391C124.825 9.16422 125.438 8.24388 126.216 7.5781C126.995 6.91233 127.86 6.57944 128.814 6.57944C129.961 6.57944 130.886 7.05919 131.586 8.01869C132.306 8.95861 132.666 10.4958 132.666 12.6302C132.666 13.2764 132.422 13.5995 131.936 13.5995H126.391C126.002 13.5995 125.808 13.8247 125.808 14.275C125.808 16.3507 126.109 17.9074 126.712 18.9453C127.316 19.9831 128.084 20.502 129.018 20.502C129.757 20.502 130.36 20.2376 130.827 19.7089C131.294 19.1802 131.673 18.2893 131.965 17.036C132.024 16.8207 132.15 16.713 132.345 16.713C132.578 16.713 132.666 16.9088 132.607 17.3004C132.296 19.0432 131.8 20.267 131.119 20.972C130.438 21.6573 129.611 22 128.638 22ZM126.304 12.8652H129.251C130.185 12.8652 130.652 12.3756 130.652 11.3965C130.652 10.1237 130.496 9.12506 130.185 8.40053C129.874 7.67601 129.407 7.31375 128.784 7.31375C128.026 7.31375 127.384 7.75434 126.858 8.63551C126.353 9.51669 126.022 10.7699 125.866 12.3952C125.827 12.7085 125.973 12.8652 126.304 12.8652Z" fill="#7C7559"></path><path d="M138.107 22C137.251 22 136.483 21.7063 135.802 21.1188C135.14 20.5118 134.625 19.6796 134.255 18.6222C133.886 17.5452 133.701 16.3017 133.701 14.8919C133.701 13.247 133.954 11.8077 134.459 10.5741C134.965 9.32087 135.666 8.34179 136.561 7.63685C137.456 6.93191 138.467 6.57944 139.596 6.57944C139.868 6.57944 140.14 6.60881 140.413 6.66756C140.685 6.70672 140.948 6.78505 141.201 6.90254C141.512 7.05919 141.667 6.99065 141.667 6.69693V2.93725C141.667 2.58478 141.609 2.34001 141.492 2.20294C141.395 2.06586 141.21 1.98754 140.938 1.96796L140.179 1.87984C139.965 1.84068 139.858 1.72319 139.858 1.52737C139.858 1.33155 139.965 1.21406 140.179 1.1749C140.802 1.05741 141.298 0.920337 141.667 0.763684C142.057 0.60703 142.378 0.450377 142.631 0.293725C142.942 0.0979082 143.175 0 143.331 0C143.545 0 143.652 0.156653 143.652 0.469959V18.9453C143.652 19.7677 143.856 20.1789 144.265 20.1789C144.518 20.1789 144.751 20.0125 144.965 19.6796C145.179 19.3271 145.286 18.7397 145.286 17.9172C145.286 17.6039 145.413 17.4473 145.665 17.4473C145.899 17.4473 146.016 17.6137 146.016 17.9466C146.016 19.3761 145.773 20.4139 145.286 21.0601C144.8 21.6867 144.245 22 143.623 22C143.059 22 142.631 21.814 142.339 21.4419C142.047 21.0503 141.852 20.5901 141.755 20.0614C141.736 19.9048 141.667 19.8264 141.551 19.8264C141.434 19.8069 141.327 19.8754 141.23 20.032C140.685 20.7957 140.189 21.3146 139.741 21.5888C139.294 21.8629 138.749 22 138.107 22ZM138.749 20.6489C139.255 20.6489 139.722 20.4824 140.15 20.1495C140.597 19.7971 140.957 19.3271 141.23 18.7397C141.522 18.1522 141.667 17.4962 141.667 16.7717V10.1629C141.667 9.28171 141.463 8.58656 141.055 8.07744C140.666 7.56831 140.15 7.31375 139.508 7.31375C138.419 7.31375 137.533 7.95995 136.852 9.25234C136.191 10.5251 135.86 12.2679 135.86 14.4806C135.86 16.4976 136.113 18.0347 136.619 19.0921C137.144 20.13 137.854 20.6489 138.749 20.6489Z" fill="#7C7559"></path><path d="M148.906 3.96529C148.497 3.96529 148.147 3.81842 147.855 3.5247C147.583 3.23097 147.447 2.85892 147.447 2.40854C147.447 1.95817 147.583 1.5959 147.855 1.32176C148.147 1.02804 148.497 0.881174 148.906 0.881174C149.314 0.881174 149.655 1.02804 149.927 1.32176C150.199 1.5959 150.336 1.95817 150.336 2.40854C150.336 2.85892 150.199 3.23097 149.927 3.5247C149.655 3.81842 149.314 3.96529 148.906 3.96529ZM146.454 21.7356C146.163 21.7356 146.017 21.6279 146.017 21.4125C146.017 21.2363 146.143 21.1188 146.396 21.0601L146.746 21.0013C147.233 20.923 147.544 20.8055 147.68 20.6489C147.816 20.4726 147.884 20.1789 147.884 19.7677V9.89853C147.884 9.54606 147.826 9.31108 147.709 9.19359C147.612 9.05652 147.427 8.9684 147.155 8.92924L146.542 8.84112C146.289 8.82154 146.163 8.71384 146.163 8.51802C146.163 8.36137 146.318 8.25367 146.629 8.19493C147.233 8.09702 147.719 7.94036 148.089 7.72497C148.458 7.50957 148.818 7.24522 149.168 6.93191C149.343 6.75567 149.489 6.66756 149.606 6.66756C149.781 6.66756 149.869 6.78505 149.869 7.02003V19.7677C149.869 20.1789 149.927 20.4726 150.044 20.6489C150.161 20.8251 150.384 20.9328 150.715 20.972L151.445 21.0601C151.659 21.0992 151.766 21.2069 151.766 21.3832C151.766 21.6182 151.62 21.7356 151.328 21.7356H146.454Z" fill="#7C7559"></path><path d="M154.995 22C154.178 22 153.506 21.7454 152.981 21.2363C152.456 20.7076 152.193 20.0125 152.193 19.1509C152.193 18.3089 152.456 17.5158 152.981 16.7717C153.506 16.008 154.226 15.3227 155.141 14.7156C156.055 14.1086 157.096 13.619 158.263 13.247C158.516 13.1687 158.643 13.0022 158.643 12.7477V10.0748C158.643 9.13485 158.497 8.46907 158.205 8.07744C157.913 7.66622 157.514 7.46061 157.008 7.46061C156.522 7.46061 156.075 7.6858 155.666 8.13618C155.277 8.56698 154.995 9.30129 154.82 10.3391C154.722 10.9657 154.508 11.4259 154.178 11.7196C153.866 11.9938 153.545 12.1308 153.215 12.1308C152.67 12.1308 152.398 11.8567 152.398 11.3084C152.398 10.7405 152.553 10.1825 152.864 9.63418C153.195 9.06631 153.623 8.55719 154.148 8.10681C154.674 7.63685 155.248 7.2648 155.87 6.99065C156.493 6.71651 157.115 6.57944 157.738 6.57944C159.664 6.57944 160.627 7.70538 160.627 9.95728V18.9453C160.627 19.7677 160.831 20.1789 161.24 20.1789C161.493 20.1789 161.726 20.0125 161.94 19.6796C162.154 19.3271 162.261 18.7397 162.261 17.9172C162.261 17.6039 162.388 17.4473 162.641 17.4473C162.874 17.4473 162.991 17.6137 162.991 17.9466C162.991 19.3761 162.738 20.4139 162.232 21.0601C161.746 21.6867 161.191 22 160.569 22C160.102 22 159.732 21.814 159.46 21.4419C159.187 21.0503 159.002 20.5901 158.905 20.0614C158.886 19.8656 158.798 19.7677 158.643 19.7677C158.506 19.7481 158.37 19.8362 158.234 20.032C157.767 20.6782 157.29 21.1678 156.804 21.5007C156.318 21.8336 155.715 22 154.995 22ZM155.783 20.6489C156.289 20.6489 156.755 20.4726 157.183 20.1202C157.611 19.7481 157.962 19.2586 158.234 18.6515C158.506 18.0445 158.643 17.3591 158.643 16.5955V14.4513C158.643 14.0792 158.438 13.9715 158.03 14.1282C156.843 14.559 155.919 15.1562 155.257 15.9199C154.615 16.664 154.294 17.5648 154.294 18.6222C154.294 19.9733 154.79 20.6489 155.783 20.6489Z" fill="#7C7559"></path><path d="M166.684 22C166.003 22 165.439 21.765 164.991 21.2951C164.563 20.8055 164.349 20.0125 164.349 18.9159V7.93057C164.349 7.69559 164.233 7.5781 163.999 7.5781H163.153C162.842 7.5781 162.686 7.46061 162.686 7.22563C162.686 7.06898 162.773 6.93191 162.949 6.81442C163.591 6.36404 164.106 5.88429 164.495 5.37517C164.884 4.84646 165.225 4.13173 165.517 3.23097C165.653 2.81976 165.818 2.61415 166.013 2.61415C166.227 2.61415 166.334 2.7708 166.334 3.08411V6.34446C166.334 6.6186 166.47 6.75567 166.742 6.75567H168.639C168.95 6.75567 169.106 6.89275 169.106 7.16689C169.106 7.44103 168.95 7.5781 168.639 7.5781H166.742C166.47 7.5781 166.334 7.71518 166.334 7.98932V18.9453C166.334 19.3761 166.402 19.7187 166.538 19.9733C166.674 20.2083 166.927 20.3258 167.297 20.3258C167.705 20.3258 168.036 20.1202 168.289 19.7089C168.561 19.2977 168.736 18.632 168.814 17.7116C168.853 17.4375 168.98 17.3004 169.194 17.3004C169.427 17.3004 169.544 17.4473 169.544 17.741C169.485 19.2488 169.174 20.3356 168.61 21.0013C168.065 21.6671 167.423 22 166.684 22Z" fill="#7C7559"></path><path d="M172.689 3.96529C172.281 3.96529 171.931 3.81842 171.639 3.5247C171.366 3.23097 171.23 2.85892 171.23 2.40854C171.23 1.95817 171.366 1.5959 171.639 1.32176C171.931 1.02804 172.281 0.881174 172.689 0.881174C173.098 0.881174 173.438 1.02804 173.711 1.32176C173.983 1.5959 174.119 1.95817 174.119 2.40854C174.119 2.85892 173.983 3.23097 173.711 3.5247C173.438 3.81842 173.098 3.96529 172.689 3.96529ZM170.238 21.7356C169.946 21.7356 169.8 21.6279 169.8 21.4125C169.8 21.2363 169.927 21.1188 170.18 21.0601L170.53 21.0013C171.016 20.923 171.328 20.8055 171.464 20.6489C171.6 20.4726 171.668 20.1789 171.668 19.7677V9.89853C171.668 9.54606 171.61 9.31108 171.493 9.19359C171.396 9.05652 171.211 8.9684 170.938 8.92924L170.326 8.84112C170.073 8.82154 169.946 8.71384 169.946 8.51802C169.946 8.36137 170.102 8.25367 170.413 8.19493C171.016 8.09702 171.503 7.94036 171.872 7.72497C172.242 7.50957 172.602 7.24522 172.952 6.93191C173.127 6.75567 173.273 6.66756 173.39 6.66756C173.565 6.66756 173.652 6.78505 173.652 7.02003V19.7677C173.652 20.1789 173.711 20.4726 173.827 20.6489C173.944 20.8251 174.168 20.9328 174.499 20.972L175.228 21.0601C175.442 21.0992 175.549 21.2069 175.549 21.3832C175.549 21.6182 175.403 21.7356 175.111 21.7356H170.238Z" fill="#7C7559"></path><path d="M181.201 22C180.208 22 179.313 21.6671 178.516 21.0013C177.738 20.316 177.115 19.3858 176.648 18.2109C176.181 17.036 175.948 15.7241 175.948 14.275C175.948 12.826 176.181 11.5238 176.648 10.3685C177.115 9.21317 177.747 8.29283 178.545 7.60748C179.343 6.92212 180.228 6.57944 181.201 6.57944C182.193 6.57944 183.078 6.92212 183.856 7.60748C184.654 8.29283 185.286 9.21317 185.753 10.3685C186.22 11.5238 186.453 12.826 186.453 14.275C186.453 15.7241 186.22 17.036 185.753 18.2109C185.306 19.3858 184.683 20.316 183.885 21.0013C183.088 21.6671 182.193 22 181.201 22ZM181.201 21.2657C183.224 21.2657 184.236 18.9355 184.236 14.275C184.236 9.63418 183.224 7.31375 181.201 7.31375C179.177 7.31375 178.166 9.63418 178.166 14.275C178.166 18.9355 179.177 21.2657 181.201 21.2657Z" fill="#7C7559"></path><path d="M187.481 21.7356C187.189 21.7356 187.043 21.6279 187.043 21.4125C187.043 21.2363 187.169 21.1188 187.422 21.0601L187.773 21.0013C188.181 20.923 188.444 20.8055 188.561 20.6489C188.697 20.4726 188.765 20.1789 188.765 19.7677V9.89853C188.765 9.54606 188.706 9.31108 188.59 9.19359C188.492 9.05652 188.308 8.9684 188.035 8.92924L187.422 8.84112C187.169 8.82154 187.043 8.71384 187.043 8.51802C187.043 8.36137 187.199 8.25367 187.51 8.19493C188.113 8.09702 188.57 7.94036 188.882 7.72497C189.212 7.50957 189.553 7.24522 189.903 6.93191C190.078 6.75567 190.224 6.66756 190.341 6.66756C190.516 6.66756 190.603 6.78505 190.603 7.02003V8.34179C190.603 8.51802 190.662 8.63551 190.778 8.69426C190.915 8.73342 191.06 8.67468 191.216 8.51802C191.994 7.77392 192.675 7.2648 193.259 6.99065C193.862 6.71651 194.494 6.57944 195.156 6.57944C196.031 6.57944 196.732 6.89275 197.257 7.51936C197.782 8.12639 198.045 9.02715 198.045 10.2216V19.7677C198.045 20.1789 198.103 20.4726 198.22 20.6489C198.356 20.8055 198.628 20.9132 199.037 20.972L199.679 21.0601C199.893 21.0992 200 21.2167 200 21.4125C200 21.6279 199.883 21.7356 199.65 21.7356H194.747C194.475 21.7356 194.339 21.6279 194.339 21.4125C194.339 21.2167 194.446 21.0992 194.66 21.0601L195.068 21.0013C195.477 20.9426 195.739 20.8251 195.856 20.6489C195.992 20.4726 196.06 20.1789 196.06 19.7677V10.5447C196.06 9.58522 195.885 8.90966 195.535 8.51802C195.185 8.12639 194.689 7.93057 194.047 7.93057C193.424 7.93057 192.86 8.1166 192.354 8.48865C191.868 8.84112 191.479 9.32087 191.187 9.9279C190.895 10.5154 190.749 11.1713 190.749 11.8959V19.7677C190.749 20.1789 190.808 20.4726 190.924 20.6489C191.06 20.8251 191.333 20.9328 191.741 20.972L192.529 21.0601C192.743 21.0992 192.85 21.2069 192.85 21.3832C192.85 21.6182 192.704 21.7356 192.413 21.7356H187.481Z" fill="#7C7559"></path></svg>