<svg xmlns="http://www.w3.org/2000/svg" width="450" height="49" viewBox="0 0 450 49" fill="none"><path d="M0.984907 48.4112C0.328302 48.4112 0 48.1713 0 47.6916C0 47.2991 0.284529 47.0374 0.853586 46.9065L2.36378 46.6449C3.28302 46.4704 3.87397 46.2305 4.13661 45.9252C4.44303 45.6199 4.59623 45.0093 4.59623 44.0935V5.62617C4.59623 4.71028 4.44303 4.09969 4.13661 3.79439C3.87397 3.4891 3.28302 3.24922 2.36378 3.07477L0.853586 2.81308C0.284529 2.68224 0 2.42056 0 2.02803C0 1.54828 0.328302 1.30841 0.984907 1.30841H14.314C16.5027 1.30841 18.4506 1.76635 20.1578 2.68224C21.8649 3.59813 23.2 4.84112 24.1631 6.41121C25.1699 7.98131 25.6733 9.76947 25.6733 11.7757C25.6733 13.7383 25.0823 15.5701 23.9004 17.271C22.7623 18.9283 21.0989 20.324 18.9102 21.4579C18.6476 21.5888 18.5163 21.7632 18.5163 21.9813C18.5163 22.1994 18.6695 22.352 18.9759 22.4393C21.9525 23.4424 24.2506 25.0561 25.8702 27.2804C27.4899 29.4611 28.2997 32.0561 28.2997 35.0654C28.2997 37.6386 27.7087 39.9502 26.5268 42C25.3449 44.0062 23.7034 45.5763 21.6023 46.7103C19.5449 47.8442 17.203 48.4112 14.5766 48.4112H0.984907ZM12.7381 21.5234C15.0581 21.5234 16.9842 20.6293 18.5163 18.8411C20.0921 17.0093 20.88 14.7414 20.88 12.0374C20.88 9.33333 20.1359 7.15265 18.6476 5.49533C17.1593 3.79439 15.1895 2.94392 12.7381 2.94392C10.4181 2.94392 9.25813 3.8162 9.25813 5.56075V17.9252C9.25813 19.19 9.52077 20.1059 10.0461 20.6729C10.6151 21.2399 11.5125 21.5234 12.7381 21.5234ZM13.723 46.7757C16.5683 46.7757 18.8883 45.7072 20.6831 43.5701C22.4778 41.3894 23.3751 38.4891 23.3751 34.8692C23.3751 31.2492 22.4559 28.3925 20.6174 26.2991C18.8227 24.2056 16.3932 23.1589 13.3291 23.1589C10.6151 23.1589 9.25813 24.2274 9.25813 26.3645V42.2617C9.25813 45.271 10.7464 46.7757 13.723 46.7757Z" fill="#A0BA9C"></path><path d="M36.6739 49C34.8354 49 33.3253 48.433 32.1434 47.2991C30.9615 46.1215 30.3705 44.5732 30.3705 42.6542C30.3705 40.7788 30.9615 39.0125 32.1434 37.3551C33.3253 35.6542 34.9449 34.1277 37.0022 32.7757C39.0596 31.4237 41.4015 30.3333 44.0279 29.5047C44.597 29.3302 44.8815 28.9595 44.8815 28.3925V22.4393C44.8815 20.3458 44.5532 18.8629 43.8966 17.9907C43.24 17.0748 42.3426 16.6168 41.2045 16.6168C40.1102 16.6168 39.1034 17.1184 38.1841 18.1215C37.3087 19.081 36.6739 20.7165 36.28 23.028C36.0611 24.4237 35.5796 25.4486 34.8354 26.1028C34.1351 26.7134 33.4128 27.0187 32.6687 27.0187C31.443 27.0187 30.8302 26.4081 30.8302 25.1869C30.8302 23.9221 31.1803 22.6791 31.8807 21.4579C32.6249 20.1931 33.5879 19.0592 34.7698 18.0561C35.9517 17.0093 37.243 16.1807 38.6438 15.5701C40.0445 14.9595 41.4453 14.6542 42.846 14.6542C47.1796 14.6542 49.3464 17.162 49.3464 22.1776V42.1963C49.3464 44.028 49.806 44.9439 50.7253 44.9439C51.2943 44.9439 51.8196 44.5732 52.3011 43.8318C52.7826 43.0467 53.0234 41.7383 53.0234 39.9065C53.0234 39.2087 53.3079 38.8598 53.877 38.8598C54.4023 38.8598 54.6649 39.2305 54.6649 39.972C54.6649 43.1558 54.0959 45.4673 52.9577 46.9065C51.8634 48.3022 50.6159 49 49.2151 49C48.1645 49 47.3328 48.5857 46.72 47.757C46.1072 46.8847 45.6913 45.8598 45.4724 44.6822C45.4287 44.2461 45.2317 44.028 44.8815 44.028C44.5751 43.9844 44.2687 44.1807 43.9623 44.6168C42.9117 46.0561 41.8392 47.1464 40.7449 47.8879C39.6506 48.6293 38.2936 49 36.6739 49ZM38.4468 45.9907C39.5849 45.9907 40.6355 45.5981 41.5985 44.8131C42.5615 43.9844 43.3494 42.8941 43.9623 41.5421C44.5751 40.19 44.8815 38.6636 44.8815 36.9626V32.1869C44.8815 31.3583 44.4219 31.1184 43.5026 31.4673C40.8324 32.4268 38.7532 33.757 37.2649 35.4579C35.8204 37.1153 35.0981 39.1215 35.0981 41.4766C35.0981 44.486 36.2143 45.9907 38.4468 45.9907Z" fill="#A0BA9C"></path><path d="M55.0204 48.4112C54.4951 48.4112 54.2325 48.1713 54.2325 47.6916C54.2325 47.2555 54.4733 46.9938 54.9548 46.9065L55.874 46.7757C56.7933 46.6449 57.4717 46.3832 57.9095 45.9907C58.3472 45.5981 58.5661 44.9439 58.5661 44.028V6.54205C58.5661 5.75701 58.4348 5.21184 58.1721 4.90654C57.9533 4.60124 57.5374 4.42679 56.9246 4.38318L55.4144 4.18691C54.9329 4.09969 54.6921 3.838 54.6921 3.40187C54.6921 2.96573 54.9329 2.70405 55.4144 2.61682C56.64 2.35514 57.6906 2.04984 58.5661 1.70093C59.4416 1.35202 60.1638 1.00311 60.7329 0.654205C61.4333 0.218068 61.9585 0 62.3087 0C62.7902 0 63.031 0.348909 63.031 1.04673V44.028C63.031 44.9439 63.1623 45.5981 63.425 45.9907C63.7314 46.3396 64.3442 46.5794 65.2635 46.7103L66.7737 46.9065C67.2552 46.9938 67.4959 47.2555 67.4959 47.6916C67.4959 48.1713 67.2333 48.4112 66.708 48.4112H55.0204Z" fill="#A0BA9C"></path><path d="M74.7006 49C72.8621 49 71.3519 48.433 70.17 47.2991C68.9881 46.1215 68.3972 44.5732 68.3972 42.6542C68.3972 40.7788 68.9881 39.0125 70.17 37.3551C71.3519 35.6542 72.9715 34.1277 75.0289 32.7757C77.0863 31.4237 79.4281 30.3333 82.0546 29.5047C82.6236 29.3302 82.9081 28.9595 82.9081 28.3925V22.4393C82.9081 20.3458 82.5798 18.8629 81.9232 17.9907C81.2666 17.0748 80.3693 16.6168 79.2312 16.6168C78.1368 16.6168 77.13 17.1184 76.2108 18.1215C75.3353 19.081 74.7006 20.7165 74.3066 23.028C74.0878 24.4237 73.6062 25.4486 72.8621 26.1028C72.1617 26.7134 71.4394 27.0187 70.6953 27.0187C69.4696 27.0187 68.8568 26.4081 68.8568 25.1869C68.8568 23.9221 69.207 22.6791 69.9074 21.4579C70.6515 20.1931 71.6145 19.0592 72.7964 18.0561C73.9783 17.0093 75.2696 16.1807 76.6704 15.5701C78.0712 14.9595 79.4719 14.6542 80.8727 14.6542C85.2063 14.6542 87.3731 17.162 87.3731 22.1776V42.1963C87.3731 44.028 87.8327 44.9439 88.7519 44.9439C89.321 44.9439 89.8463 44.5732 90.3278 43.8318C90.8093 43.0467 91.05 41.7383 91.05 39.9065C91.05 39.2087 91.3346 38.8598 91.9036 38.8598C92.4289 38.8598 92.6916 39.2305 92.6916 39.972C92.6916 43.1558 92.1225 45.4673 90.9844 46.9065C89.8901 48.3022 88.6425 49 87.2417 49C86.1912 49 85.3595 48.5857 84.7466 47.757C84.1338 46.8847 83.718 45.8598 83.4991 44.6822C83.4553 44.2461 83.2583 44.028 82.9081 44.028C82.6017 43.9844 82.2953 44.1807 81.9889 44.6168C80.9383 46.0561 79.8659 47.1464 78.7715 47.8879C77.6772 48.6293 76.3202 49 74.7006 49ZM76.4734 45.9907C77.6115 45.9907 78.6621 45.5981 79.6251 44.8131C80.5881 43.9844 81.3761 42.8941 81.9889 41.5421C82.6017 40.19 82.9081 38.6636 82.9081 36.9626V32.1869C82.9081 31.3583 82.4485 31.1184 81.5293 31.4673C78.8591 32.4268 76.7798 33.757 75.2915 35.4579C73.847 37.1153 73.1247 39.1215 73.1247 41.4766C73.1247 44.486 74.241 45.9907 76.4734 45.9907Z" fill="#A0BA9C"></path><path d="M93.5067 48.4112C92.9814 48.4112 92.7188 48.1713 92.7188 47.6916C92.7188 47.2555 92.9595 46.9938 93.441 46.9065L94.3603 46.7757C95.2795 46.6449 95.8705 46.3832 96.1331 45.9907C96.4395 45.5981 96.5927 44.9439 96.5927 44.028V6.54205C96.5927 5.75701 96.4614 5.23364 96.1988 4.97196C95.9799 4.66667 95.5641 4.4704 94.9512 4.38318L93.5724 4.18691C93.0908 4.09969 92.8501 3.838 92.8501 3.40187C92.8501 2.96573 93.0908 2.70405 93.5724 2.61682C94.798 2.35514 95.8267 2.04984 96.6584 1.70093C97.4901 1.35202 98.1905 1.00311 98.7595 0.654205C99.4599 0.218068 99.9852 0 100.335 0C100.817 0 101.058 0.348909 101.058 1.04673V28.4579C101.058 28.8941 101.233 29.1776 101.583 29.3084C101.977 29.3956 102.349 29.243 102.699 28.8505L110.381 20.6075C111.301 19.6044 111.673 18.7757 111.498 18.1215C111.366 17.4237 110.863 16.9875 109.987 16.8131L108.477 16.5514C107.908 16.4206 107.624 16.1371 107.624 15.7009C107.624 15.2648 107.93 15.0467 108.543 15.0467H119.837C120.449 15.0467 120.756 15.2866 120.756 15.7664C120.756 16.2461 120.471 16.5078 119.902 16.5514L119.311 16.6168C118.304 16.704 117.298 17.0966 116.291 17.7944C115.284 18.4486 114.08 19.4953 112.68 20.9346L108.609 25.2523C107.689 26.2555 107.47 27.2368 107.952 28.1963L116.225 44.028C116.707 44.9003 117.232 45.5327 117.801 45.9252C118.37 46.3178 119.071 46.6012 119.902 46.7757L120.559 46.9065C121.084 47.0374 121.347 47.2991 121.347 47.6916C121.347 48.1713 121.04 48.4112 120.427 48.4112H109.003C108.39 48.4112 108.083 48.1713 108.083 47.6916C108.083 47.2555 108.368 46.9938 108.937 46.9065L110.053 46.7757C111.717 46.5576 112.067 45.4891 111.104 43.5701L104.866 31.4673C104.647 31.0312 104.319 30.7913 103.881 30.7477C103.487 30.704 103.115 30.8567 102.765 31.2056L102.043 31.9252C101.649 32.3178 101.386 32.7103 101.255 33.1028C101.123 33.4953 101.058 33.9315 101.058 34.4112V44.028C101.058 44.9439 101.189 45.5981 101.452 45.9907C101.758 46.3832 102.371 46.6231 103.29 46.7103L105.063 46.9065C105.544 46.9938 105.785 47.2555 105.785 47.6916C105.785 48.1713 105.523 48.4112 104.997 48.4112H93.5067Z" fill="#A0BA9C"></path><path d="M121.048 48.4112C120.523 48.4112 120.26 48.1713 120.26 47.6916C120.26 47.2555 120.501 46.9938 120.983 46.9065L121.902 46.7757C122.821 46.6449 123.412 46.3832 123.675 45.9907C123.981 45.5981 124.134 44.9439 124.134 44.028V6.54205C124.134 5.75701 124.003 5.23364 123.74 4.97196C123.521 4.66667 123.106 4.4704 122.493 4.38318L121.114 4.18691C120.632 4.09969 120.392 3.838 120.392 3.40187C120.392 2.96573 120.632 2.70405 121.114 2.61682C122.34 2.35514 123.368 2.04984 124.2 1.70093C125.032 1.35202 125.732 1.00311 126.301 0.654205C127.001 0.218068 127.527 0 127.877 0C128.358 0 128.599 0.348909 128.599 1.04673V18.3832C128.599 18.7757 128.73 19.0156 128.993 19.1028C129.256 19.1464 129.584 18.9938 129.978 18.6449C131.641 17.1184 133.108 16.0717 134.377 15.5047C135.647 14.9377 136.982 14.6542 138.383 14.6542C140.44 14.6542 142.06 15.352 143.241 16.7477C144.423 18.0997 145.014 20.1059 145.014 22.7664V44.028C145.014 44.9439 145.146 45.5981 145.408 45.9907C145.715 46.3396 146.327 46.5794 147.247 46.7103L148.691 46.9065C149.173 46.9938 149.414 47.2555 149.414 47.6916C149.414 48.1713 149.151 48.4112 148.626 48.4112H137.595C136.982 48.4112 136.675 48.1713 136.675 47.6916C136.675 47.2555 136.916 46.9938 137.398 46.9065L138.317 46.7757C139.236 46.6449 139.827 46.3832 140.09 45.9907C140.396 45.5981 140.549 44.9439 140.549 44.028V23.486C140.549 21.3489 140.155 19.8442 139.367 18.972C138.58 18.0997 137.463 17.6635 136.019 17.6635C134.618 17.6635 133.349 18.0779 132.21 18.9065C131.116 19.6916 130.241 20.7601 129.584 22.1122C128.927 23.4206 128.599 24.8816 128.599 26.4953V44.028C128.599 44.9439 128.73 45.5981 128.993 45.9907C129.3 46.3832 129.912 46.6231 130.832 46.7103L132.604 46.9065C133.086 46.9938 133.327 47.2555 133.327 47.6916C133.327 48.1713 133.064 48.4112 132.539 48.4112H121.048Z" fill="#A0BA9C"></path><path d="M156.684 49C154.845 49 153.335 48.433 152.153 47.2991C150.971 46.1215 150.38 44.5732 150.38 42.6542C150.38 40.7788 150.971 39.0125 152.153 37.3551C153.335 35.6542 154.955 34.1277 157.012 32.7757C159.07 31.4237 161.411 30.3333 164.038 29.5047C164.607 29.3302 164.891 28.9595 164.891 28.3925V22.4393C164.891 20.3458 164.563 18.8629 163.907 17.9907C163.25 17.0748 162.353 16.6168 161.214 16.6168C160.12 16.6168 159.113 17.1184 158.194 18.1215C157.319 19.081 156.684 20.7165 156.29 23.028C156.071 24.4237 155.59 25.4486 154.845 26.1028C154.145 26.7134 153.423 27.0187 152.679 27.0187C151.453 27.0187 150.84 26.4081 150.84 25.1869C150.84 23.9221 151.19 22.6791 151.891 21.4579C152.635 20.1931 153.598 19.0592 154.78 18.0561C155.962 17.0093 157.253 16.1807 158.654 15.5701C160.054 14.9595 161.455 14.6542 162.856 14.6542C167.19 14.6542 169.356 17.162 169.356 22.1776V42.1963C169.356 44.028 169.816 44.9439 170.735 44.9439C171.304 44.9439 171.83 44.5732 172.311 43.8318C172.793 43.0467 173.033 41.7383 173.033 39.9065C173.033 39.2087 173.318 38.8598 173.887 38.8598C174.412 38.8598 174.675 39.2305 174.675 39.972C174.675 43.1558 174.106 45.4673 172.968 46.9065C171.873 48.3022 170.626 49 169.225 49C168.174 49 167.343 48.5857 166.73 47.757C166.117 46.8847 165.701 45.8598 165.482 44.6822C165.439 44.2461 165.242 44.028 164.891 44.028C164.585 43.9844 164.279 44.1807 163.972 44.6168C162.922 46.0561 161.849 47.1464 160.755 47.8879C159.66 48.6293 158.303 49 156.684 49ZM158.457 45.9907C159.595 45.9907 160.645 45.5981 161.608 44.8131C162.571 43.9844 163.359 42.8941 163.972 41.5421C164.585 40.19 164.891 38.6636 164.891 36.9626V32.1869C164.891 31.3583 164.432 31.1184 163.513 31.4673C160.842 32.4268 158.763 33.757 157.275 35.4579C155.83 37.1153 155.108 39.1215 155.108 41.4766C155.108 44.486 156.224 45.9907 158.457 45.9907Z" fill="#A0BA9C"></path><path d="M175.687 48.4112C175.03 48.4112 174.702 48.1713 174.702 47.6916C174.702 47.2991 174.987 47.0374 175.556 46.9065L176.344 46.7757C177.263 46.6012 177.854 46.3396 178.116 45.9907C178.423 45.5981 178.576 44.9439 178.576 44.028V22.0467C178.576 21.2617 178.445 20.7383 178.182 20.4766C177.963 20.1713 177.547 19.9751 176.934 19.8878L175.556 19.6916C174.987 19.648 174.702 19.4081 174.702 18.972C174.702 18.6231 175.052 18.3832 175.753 18.2523C177.11 18.0343 178.138 17.6854 178.839 17.2056C179.583 16.7259 180.349 16.1371 181.137 15.4393C181.531 15.0467 181.859 14.8505 182.122 14.8505C182.516 14.8505 182.713 15.1121 182.713 15.6355V18.5794C182.713 18.972 182.844 19.2336 183.107 19.3645C183.413 19.4517 183.741 19.3209 184.091 18.972C185.842 17.3146 187.375 16.1807 188.688 15.5701C190.045 14.9595 191.467 14.6542 192.956 14.6542C194.925 14.6542 196.501 15.352 197.683 16.7477C198.865 18.0997 199.456 20.1059 199.456 22.7664V44.028C199.456 44.9439 199.587 45.5981 199.85 45.9907C200.156 46.3396 200.769 46.5794 201.689 46.7103L203.133 46.9065C203.615 46.9938 203.855 47.2555 203.855 47.6916C203.855 48.1713 203.593 48.4112 203.067 48.4112H192.036C191.424 48.4112 191.117 48.1713 191.117 47.6916C191.117 47.2555 191.358 46.9938 191.839 46.9065L192.759 46.7757C193.678 46.6449 194.269 46.3832 194.532 45.9907C194.838 45.5981 194.991 44.9439 194.991 44.028V23.486C194.991 21.3489 194.597 19.8442 193.809 18.972C193.021 18.0997 191.905 17.6635 190.461 17.6635C189.06 17.6635 187.79 18.0779 186.652 18.9065C185.558 19.6916 184.682 20.7601 184.026 22.1122C183.369 23.4206 183.041 24.8816 183.041 26.4953V44.028C183.041 44.9439 183.172 45.5981 183.435 45.9907C183.741 46.3832 184.354 46.6231 185.273 46.7103L187.046 46.9065C187.528 46.9938 187.768 47.2336 187.768 47.6262C187.768 48.1495 187.44 48.4112 186.784 48.4112H175.687Z" fill="#A0BA9C"></path><path d="M215.853 49C213.752 49 211.87 48.3022 210.206 46.9065C208.543 45.5109 207.208 43.5483 206.201 41.0187C205.238 38.4455 204.757 35.4798 204.757 32.1215C204.757 28.676 205.26 25.6449 206.267 23.028C207.274 20.4112 208.652 18.3614 210.403 16.8785C212.154 15.3956 214.102 14.6542 216.247 14.6542C218.83 14.6542 220.909 15.7227 222.485 17.8598C224.105 19.9533 224.914 23.3769 224.914 28.1308C224.914 29.5701 224.367 30.2897 223.273 30.2897H210.797C209.922 30.2897 209.484 30.7913 209.484 31.7944C209.484 36.4174 210.163 39.8847 211.52 42.1963C212.877 44.5078 214.606 45.6636 216.707 45.6636C218.37 45.6636 219.727 45.0748 220.778 43.8972C221.828 42.7196 222.682 40.7352 223.338 37.9439C223.47 37.4642 223.754 37.2243 224.192 37.2243C224.717 37.2243 224.914 37.6604 224.783 38.5327C224.083 42.4143 222.966 45.1402 221.434 46.7103C219.902 48.2368 218.042 49 215.853 49ZM210.6 28.6542H217.232C219.333 28.6542 220.384 27.5639 220.384 25.3832C220.384 22.5483 220.034 20.324 219.333 18.7103C218.633 17.0966 217.582 16.2897 216.181 16.2897C214.474 16.2897 213.03 17.271 211.848 19.2336C210.71 21.1963 209.966 23.9875 209.615 27.6075C209.528 28.3053 209.856 28.6542 210.6 28.6542Z" fill="#A0BA9C"></path><path d="M255.8 47.757C255.625 47.757 255.428 47.6916 255.21 47.5607C254.991 47.4299 254.837 47.1464 254.75 46.7103L244.835 6.60747C244.791 6.30218 244.66 6.17134 244.441 6.21495C244.222 6.21495 244.113 6.3676 244.113 6.6729L242.8 42.785C242.756 44.0062 242.953 44.9439 243.391 45.5981C243.828 46.2087 244.594 46.6012 245.689 46.7757L246.542 46.9065C247.111 46.9502 247.396 47.2118 247.396 47.6916C247.396 48.1713 247.068 48.4112 246.411 48.4112H237.022C236.365 48.4112 236.037 48.1713 236.037 47.6916C236.037 47.2118 236.321 46.9502 236.89 46.9065L237.744 46.7757C238.882 46.6012 239.648 46.2087 240.042 45.5981C240.48 44.9439 240.72 44.0062 240.764 42.785L242.077 5.62617C242.121 4.71028 241.99 4.09969 241.683 3.79439C241.377 3.4891 240.72 3.24922 239.714 3.07477L238.203 2.81308C237.634 2.68224 237.35 2.42056 237.35 2.02803C237.35 1.54828 237.678 1.30841 238.335 1.30841H246.214C247.571 1.30841 248.403 1.96261 248.709 3.27102L256.654 35.9159C256.742 36.2212 256.873 36.3738 257.048 36.3738C257.267 36.3738 257.398 36.2212 257.442 35.9159L265.715 2.94392C265.978 1.85358 266.678 1.30841 267.816 1.30841H275.564C276.221 1.30841 276.549 1.54828 276.549 2.02803C276.549 2.42056 276.265 2.68224 275.696 2.81308L274.185 3.07477C273.266 3.24922 272.653 3.4891 272.347 3.79439C272.04 4.09969 271.909 4.71028 271.953 5.62617L273.266 44.0935C273.31 45.0093 273.463 45.6199 273.726 45.9252C273.988 46.2305 274.579 46.4704 275.499 46.6449L277.009 46.9065C277.578 47.0374 277.862 47.2991 277.862 47.6916C277.862 48.1713 277.534 48.4112 276.877 48.4112H264.993C264.336 48.4112 264.008 48.1713 264.008 47.6916C264.008 47.2991 264.293 47.0374 264.862 46.9065L266.372 46.6449C267.291 46.4704 267.904 46.2305 268.21 45.9252C268.517 45.6199 268.648 45.0093 268.604 44.0935L267.488 6.6729C267.488 6.3676 267.379 6.21495 267.16 6.21495C266.985 6.17134 266.853 6.28037 266.766 6.54205L256.785 46.7103C256.698 47.1464 256.545 47.4299 256.326 47.5607C256.151 47.6916 255.976 47.757 255.8 47.757Z" fill="#A0BA9C"></path><path d="M289.437 49C287.335 49 285.453 48.3022 283.79 46.9065C282.126 45.5109 280.791 43.5483 279.784 41.0187C278.821 38.4455 278.34 35.4798 278.34 32.1215C278.34 28.676 278.843 25.6449 279.85 23.028C280.857 20.4112 282.236 18.3614 283.987 16.8785C285.738 15.3956 287.686 14.6542 289.831 14.6542C292.413 14.6542 294.492 15.7227 296.068 17.8598C297.688 19.9533 298.498 23.3769 298.498 28.1308C298.498 29.5701 297.951 30.2897 296.856 30.2897H284.381C283.505 30.2897 283.067 30.7913 283.067 31.7944C283.067 36.4174 283.746 39.8847 285.103 42.1963C286.46 44.5078 288.189 45.6636 290.29 45.6636C291.954 45.6636 293.311 45.0748 294.361 43.8972C295.412 42.7196 296.265 40.7352 296.922 37.9439C297.053 37.4642 297.338 37.2243 297.775 37.2243C298.301 37.2243 298.498 37.6604 298.366 38.5327C297.666 42.4143 296.55 45.1402 295.018 46.7103C293.486 48.2368 291.625 49 289.437 49ZM284.184 28.6542H290.815C292.917 28.6542 293.967 27.5639 293.967 25.3832C293.967 22.5483 293.617 20.324 292.917 18.7103C292.216 17.0966 291.166 16.2897 289.765 16.2897C288.058 16.2897 286.613 17.271 285.431 19.2336C284.293 21.1963 283.549 23.9875 283.199 27.6075C283.111 28.3053 283.44 28.6542 284.184 28.6542Z" fill="#A0BA9C"></path><path d="M310.741 49C308.815 49 307.086 48.3458 305.554 47.0374C304.066 45.6854 302.906 43.8318 302.074 41.4766C301.242 39.0779 300.827 36.3084 300.827 33.1682C300.827 29.5047 301.396 26.2991 302.534 23.5514C303.672 20.7601 305.248 18.5794 307.261 17.0093C309.275 15.4393 311.551 14.6542 314.09 14.6542C314.703 14.6542 315.316 14.7196 315.928 14.8505C316.541 14.9377 317.132 15.1121 317.701 15.3738C318.402 15.7227 318.752 15.5701 318.752 14.9159V6.54205C318.752 5.75701 318.621 5.21184 318.358 4.90654C318.139 4.60124 317.723 4.42679 317.11 4.38318L315.403 4.18691C314.922 4.09969 314.681 3.838 314.681 3.40187C314.681 2.96573 314.922 2.70405 315.403 2.61682C316.804 2.35514 317.92 2.04984 318.752 1.70093C319.627 1.35202 320.35 1.00311 320.919 0.654205C321.619 0.218068 322.144 0 322.495 0C322.976 0 323.217 0.348909 323.217 1.04673V42.1963C323.217 44.028 323.676 44.9439 324.596 44.9439C325.165 44.9439 325.69 44.5732 326.172 43.8318C326.653 43.0467 326.894 41.7383 326.894 39.9065C326.894 39.2087 327.178 38.8598 327.747 38.8598C328.273 38.8598 328.535 39.2305 328.535 39.972C328.535 43.1558 327.988 45.4673 326.894 46.9065C325.799 48.3022 324.552 49 323.151 49C321.882 49 320.919 48.5857 320.262 47.757C319.605 46.8847 319.168 45.8598 318.949 44.6822C318.905 44.3333 318.752 44.1589 318.489 44.1589C318.227 44.1153 317.986 44.2679 317.767 44.6168C316.541 46.3178 315.425 47.4735 314.418 48.0841C313.411 48.6947 312.186 49 310.741 49ZM312.186 45.9907C313.324 45.9907 314.375 45.6199 315.338 44.8785C316.344 44.0935 317.154 43.0467 317.767 41.7383C318.424 40.4299 318.752 38.9688 318.752 37.3551V22.6355C318.752 20.6729 318.292 19.1246 317.373 17.9907C316.498 16.8567 315.338 16.2897 313.893 16.2897C311.442 16.2897 309.45 17.729 307.918 20.6075C306.43 23.4424 305.685 27.324 305.685 32.2523C305.685 36.7445 306.254 40.1682 307.393 42.5234C308.574 44.8349 310.172 45.9907 312.186 45.9907Z" fill="#A0BA9C"></path><path d="M335.038 8.83177C334.118 8.83177 333.331 8.50467 332.674 7.85047C332.061 7.19626 331.755 6.3676 331.755 5.36448C331.755 4.36137 332.061 3.55451 332.674 2.94392C333.331 2.28972 334.118 1.96261 335.038 1.96261C335.957 1.96261 336.723 2.28972 337.336 2.94392C337.949 3.55451 338.255 4.36137 338.255 5.36448C338.255 6.3676 337.949 7.19626 337.336 7.85047C336.723 8.50467 335.957 8.83177 335.038 8.83177ZM329.522 48.4112C328.866 48.4112 328.537 48.1713 328.537 47.6916C328.537 47.2991 328.822 47.0374 329.391 46.9065L330.179 46.7757C331.273 46.6012 331.974 46.3396 332.28 45.9907C332.586 45.5981 332.74 44.9439 332.74 44.028V22.0467C332.74 21.2617 332.608 20.7383 332.346 20.4766C332.127 20.1713 331.711 19.9751 331.098 19.8878L329.719 19.6916C329.15 19.648 328.866 19.4081 328.866 18.972C328.866 18.6231 329.216 18.3832 329.916 18.2523C331.273 18.0343 332.368 17.6854 333.199 17.2056C334.031 16.7259 334.841 16.1371 335.629 15.4393C336.023 15.0467 336.351 14.8505 336.614 14.8505C337.008 14.8505 337.205 15.1121 337.205 15.6355V44.028C337.205 44.9439 337.336 45.5981 337.599 45.9907C337.861 46.3832 338.365 46.6231 339.109 46.7103L340.75 46.9065C341.232 46.9938 341.472 47.2336 341.472 47.6262C341.472 48.1495 341.144 48.4112 340.488 48.4112H329.522Z" fill="#A0BA9C"></path><path d="M348.738 49C346.9 49 345.39 48.433 344.208 47.2991C343.026 46.1215 342.435 44.5732 342.435 42.6542C342.435 40.7788 343.026 39.0125 344.208 37.3551C345.39 35.6542 347.009 34.1277 349.067 32.7757C351.124 31.4237 353.466 30.3333 356.092 29.5047C356.661 29.3302 356.946 28.9595 356.946 28.3925V22.4393C356.946 20.3458 356.617 18.8629 355.961 17.9907C355.304 17.0748 354.407 16.6168 353.269 16.6168C352.174 16.6168 351.168 17.1184 350.248 18.1215C349.373 19.081 348.738 20.7165 348.344 23.028C348.125 24.4237 347.644 25.4486 346.9 26.1028C346.199 26.7134 345.477 27.0187 344.733 27.0187C343.507 27.0187 342.894 26.4081 342.894 25.1869C342.894 23.9221 343.245 22.6791 343.945 21.4579C344.689 20.1931 345.652 19.0592 346.834 18.0561C348.016 17.0093 349.307 16.1807 350.708 15.5701C352.109 14.9595 353.51 14.6542 354.91 14.6542C359.244 14.6542 361.411 17.162 361.411 22.1776V42.1963C361.411 44.028 361.87 44.9439 362.79 44.9439C363.359 44.9439 363.884 44.5732 364.365 43.8318C364.847 43.0467 365.088 41.7383 365.088 39.9065C365.088 39.2087 365.372 38.8598 365.941 38.8598C366.467 38.8598 366.729 39.2305 366.729 39.972C366.729 43.1558 366.16 45.4673 365.022 46.9065C363.928 48.3022 362.68 49 361.279 49C360.229 49 359.397 48.5857 358.784 47.757C358.171 46.8847 357.756 45.8598 357.537 44.6822C357.493 44.2461 357.296 44.028 356.946 44.028C356.639 43.9844 356.333 44.1807 356.027 44.6168C354.976 46.0561 353.904 47.1464 352.809 47.8879C351.715 48.6293 350.358 49 348.738 49ZM350.511 45.9907C351.649 45.9907 352.7 45.5981 353.663 44.8131C354.626 43.9844 355.414 42.8941 356.027 41.5421C356.639 40.19 356.946 38.6636 356.946 36.9626V32.1869C356.946 31.3583 356.486 31.1184 355.567 31.4673C352.897 32.4268 350.817 33.757 349.329 35.4579C347.885 37.1153 347.162 39.1215 347.162 41.4766C347.162 44.486 348.279 45.9907 350.511 45.9907Z" fill="#A0BA9C"></path><path d="M375.039 49C373.507 49 372.237 48.4766 371.231 47.4299C370.268 46.3396 369.786 44.5732 369.786 42.1308V17.6635C369.786 17.1402 369.523 16.8785 368.998 16.8785H367.094C366.394 16.8785 366.043 16.6168 366.043 16.0935C366.043 15.7445 366.24 15.4393 366.634 15.1776C368.079 14.1745 369.239 13.1059 370.114 11.972C370.99 10.7944 371.756 9.20249 372.412 7.19626C372.719 6.28037 373.091 5.82243 373.529 5.82243C374.01 5.82243 374.251 6.17134 374.251 6.86916V14.1308C374.251 14.7414 374.557 15.0467 375.17 15.0467H379.438C380.139 15.0467 380.489 15.352 380.489 15.9626C380.489 16.5732 380.139 16.8785 379.438 16.8785H375.17C374.557 16.8785 374.251 17.1838 374.251 17.7944V42.1963C374.251 43.1558 374.404 43.919 374.711 44.486C375.017 45.0093 375.586 45.271 376.418 45.271C377.337 45.271 378.081 44.8131 378.65 43.8972C379.263 42.9813 379.657 41.4984 379.832 39.4486C379.92 38.838 380.204 38.5327 380.686 38.5327C381.211 38.5327 381.474 38.8598 381.474 39.514C381.342 42.8723 380.642 45.2928 379.372 46.7757C378.147 48.2586 376.702 49 375.039 49Z" fill="#A0BA9C"></path><path d="M388.551 8.83177C387.632 8.83177 386.844 8.50467 386.187 7.85047C385.574 7.19626 385.268 6.3676 385.268 5.36448C385.268 4.36137 385.574 3.55451 386.187 2.94392C386.844 2.28972 387.632 1.96261 388.551 1.96261C389.47 1.96261 390.236 2.28972 390.849 2.94392C391.462 3.55451 391.768 4.36137 391.768 5.36448C391.768 6.3676 391.462 7.19626 390.849 7.85047C390.236 8.50467 389.47 8.83177 388.551 8.83177ZM383.036 48.4112C382.379 48.4112 382.051 48.1713 382.051 47.6916C382.051 47.2991 382.335 47.0374 382.904 46.9065L383.692 46.7757C384.786 46.6012 385.487 46.3396 385.793 45.9907C386.1 45.5981 386.253 44.9439 386.253 44.028V22.0467C386.253 21.2617 386.122 20.7383 385.859 20.4766C385.64 20.1713 385.224 19.9751 384.611 19.8878L383.233 19.6916C382.663 19.648 382.379 19.4081 382.379 18.972C382.379 18.6231 382.729 18.3832 383.43 18.2523C384.786 18.0343 385.881 17.6854 386.713 17.2056C387.544 16.7259 388.354 16.1371 389.142 15.4393C389.536 15.0467 389.864 14.8505 390.127 14.8505C390.521 14.8505 390.718 15.1121 390.718 15.6355V44.028C390.718 44.9439 390.849 45.5981 391.112 45.9907C391.374 46.3832 391.878 46.6231 392.622 46.7103L394.264 46.9065C394.745 46.9938 394.986 47.2336 394.986 47.6262C394.986 48.1495 394.657 48.4112 394.001 48.4112H383.036Z" fill="#A0BA9C"></path><path d="M407.701 49C405.469 49 403.455 48.2586 401.661 46.7757C399.91 45.2492 398.509 43.1776 397.458 40.5607C396.408 37.9439 395.882 35.0218 395.882 31.7944C395.882 28.567 396.408 25.6667 397.458 23.0935C398.509 20.5202 399.931 18.4704 401.726 16.9439C403.521 15.4174 405.513 14.6542 407.701 14.6542C409.934 14.6542 411.925 15.4174 413.676 16.9439C415.471 18.4704 416.894 20.5202 417.944 23.0935C418.995 25.6667 419.52 28.567 419.52 31.7944C419.52 35.0218 418.995 37.9439 417.944 40.5607C416.938 43.1776 415.537 45.2492 413.742 46.7757C411.947 48.2586 409.934 49 407.701 49ZM407.701 47.3645C412.254 47.3645 414.53 42.1745 414.53 31.7944C414.53 21.4579 412.254 16.2897 407.701 16.2897C403.149 16.2897 400.873 21.4579 400.873 31.7944C400.873 42.1745 403.149 47.3645 407.701 47.3645Z" fill="#A0BA9C"></path><path d="M421.832 48.4112C421.175 48.4112 420.847 48.1713 420.847 47.6916C420.847 47.2991 421.131 47.0374 421.7 46.9065L422.488 46.7757C423.408 46.6012 423.998 46.3396 424.261 45.9907C424.568 45.5981 424.721 44.9439 424.721 44.028V22.0467C424.721 21.2617 424.589 20.7383 424.327 20.4766C424.108 20.1713 423.692 19.9751 423.079 19.8878L421.7 19.6916C421.131 19.648 420.847 19.4081 420.847 18.972C420.847 18.6231 421.197 18.3832 421.897 18.2523C423.254 18.0343 424.283 17.6854 424.983 17.2056C425.728 16.7259 426.494 16.1371 427.281 15.4393C427.675 15.0467 428.004 14.8505 428.266 14.8505C428.66 14.8505 428.857 15.1121 428.857 15.6355V18.5794C428.857 18.972 428.989 19.2336 429.251 19.3645C429.558 19.4517 429.886 19.3209 430.236 18.972C431.987 17.3146 433.519 16.1807 434.832 15.5701C436.189 14.9595 437.612 14.6542 439.1 14.6542C441.07 14.6542 442.646 15.352 443.828 16.7477C445.01 18.0997 445.601 20.1059 445.601 22.7664V44.028C445.601 44.9439 445.732 45.5981 445.995 45.9907C446.301 46.3396 446.914 46.5794 447.833 46.7103L449.278 46.9065C449.759 46.9938 450 47.2555 450 47.6916C450 48.1713 449.737 48.4112 449.212 48.4112H438.181C437.568 48.4112 437.262 48.1713 437.262 47.6916C437.262 47.2555 437.503 46.9938 437.984 46.9065L438.903 46.7757C439.823 46.6449 440.414 46.3832 440.676 45.9907C440.983 45.5981 441.136 44.9439 441.136 44.028V23.486C441.136 21.3489 440.742 19.8442 439.954 18.972C439.166 18.0997 438.05 17.6635 436.605 17.6635C435.204 17.6635 433.935 18.0779 432.797 18.9065C431.703 19.6916 430.827 20.7601 430.171 22.1122C429.514 23.4206 429.186 24.8816 429.186 26.4953V44.028C429.186 44.9439 429.317 45.5981 429.58 45.9907C429.886 46.3832 430.499 46.6231 431.418 46.7103L433.191 46.9065C433.672 46.9938 433.913 47.2336 433.913 47.6262C433.913 48.1495 433.585 48.4112 432.928 48.4112H421.832Z" fill="#A0BA9C"></path></svg>