<svg xmlns="http://www.w3.org/2000/svg" width="26" height="26" viewBox="0 0 26 26" fill="none"><path d="M20.6666 5.3385C18.6234 3.29425 15.9064 2.16759 13.0118 2.1665C7.04692 2.1665 2.1925 7.01875 2.19034 12.9836C2.18925 14.8903 2.68759 16.7514 3.63442 18.3916L2.1665 23.8332L7.83559 22.4931C9.41617 23.3554 11.195 23.8093 13.0063 23.8104H13.0107C18.9744 23.8104 23.8288 18.9571 23.8321 12.9933C23.8343 10.1019 22.7098 7.38384 20.6666 5.3385ZM18.306 16.85C18.0807 17.4816 16.9768 18.0904 16.4806 18.1348C15.9844 18.1803 15.5197 18.3591 13.236 17.4588C10.4876 16.3755 8.75209 13.5578 8.61775 13.3779C8.48234 13.197 7.51384 11.9122 7.51384 10.5818C7.51384 9.2515 8.21259 8.59717 8.46067 8.32742C8.70875 8.05659 9.00125 7.98942 9.18217 7.98942C9.362 7.98942 9.54292 7.98942 9.7 7.99592C9.89284 8.0035 10.1063 8.01325 10.3088 8.46284C10.5493 8.998 11.0748 10.3348 11.1419 10.4703C11.2091 10.6057 11.2546 10.7638 11.1647 10.9437C11.0748 11.1235 11.0293 11.2362 10.8949 11.3943C10.7595 11.5525 10.6111 11.7464 10.4898 11.8678C10.3543 12.0021 10.2135 12.1494 10.3706 12.4192C10.5288 12.69 11.0704 13.5751 11.8743 14.2912C12.9078 15.212 13.7777 15.4969 14.0485 15.6334C14.3193 15.7688 14.4764 15.7461 14.6346 15.5652C14.7928 15.3853 15.3106 14.7765 15.4904 14.5057C15.6703 14.2348 15.8512 14.2803 16.0993 14.3703C16.3473 14.4602 17.6766 15.1145 17.9463 15.2499C18.2172 15.3853 18.397 15.4525 18.4642 15.5652C18.5313 15.6768 18.5313 16.2184 18.306 16.85Z" fill="#7C8F87"></path></svg>