<svg xmlns="http://www.w3.org/2000/svg" width="26" height="26" viewBox="0 0 26 26" fill="none"><path d="M6.5 3.25C4.71795 3.25 3.25 4.71795 3.25 6.5V19.5C3.25 21.2821 4.71795 22.75 6.5 22.75H19.5C21.2821 22.75 22.75 21.2821 22.75 19.5V6.5C22.75 4.71795 21.2821 3.25 19.5 3.25H6.5ZM13 7.58333H15.1667C15.1667 8.67208 16.7603 9.75 17.3333 9.75V11.9167C16.6779 11.9167 15.8903 11.6287 15.1667 11.1423V15.1667C15.1667 16.9585 13.7085 18.4167 11.9167 18.4167C10.1248 18.4167 8.66667 16.9585 8.66667 15.1667C8.66667 13.3748 10.1248 11.9167 11.9167 11.9167V14.0833C11.3187 14.0833 10.8333 14.5698 10.8333 15.1667C10.8333 15.7636 11.3187 16.25 11.9167 16.25C12.5147 16.25 13 15.7636 13 15.1667V7.58333Z" fill="#A0BA9C"></path></svg>