<svg xmlns="http://www.w3.org/2000/svg" width="26" height="26" viewBox="0 0 26 26" fill="none"><path d="M13 2.1665C6.5 2.1665 6.5 8.6665 6.5 8.6665V9.74984C6.5 9.74984 6.47508 9.74875 6.43175 9.74875C6.06341 9.74875 4.33333 9.82459 4.33333 11.2611C4.33333 12.9348 6.17175 12.9998 6.46208 12.9998C6.487 12.9998 6.5 12.9998 6.5 12.9998C6.5 14.0832 4.71033 15.3518 3.536 15.6453C2.44183 16.07 2.18075 16.7948 2.16667 17.344C2.158 17.6723 2.23817 17.9377 2.2815 18.0406C2.68992 18.9993 3.90325 19.4944 5.09166 19.4944C5.13283 21.0533 6.25733 21.6665 7.01025 21.6665C7.87041 21.6665 8.78041 21.2462 8.78041 21.2462C8.82483 21.283 10.2104 22.7498 13 22.7498C15.7896 22.7498 17.1752 21.283 17.2207 21.2462C17.2207 21.2462 18.1296 21.6665 18.9908 21.6665C19.7437 21.6665 20.8672 21.0533 20.9083 19.4944C22.0967 19.4944 23.3101 18.9993 23.7185 18.0406C23.7618 17.9377 23.842 17.6723 23.8333 17.344C23.8192 16.7948 23.5582 16.07 22.464 15.6453C21.2897 15.3518 19.5 14.0832 19.5 12.9998C19.5 12.9998 19.513 12.9998 19.5379 12.9998C19.8282 12.9998 21.6667 12.9348 21.6667 11.2611C21.6667 9.82459 19.9366 9.74875 19.5682 9.74875C19.5249 9.74875 19.5 9.74984 19.5 9.74984V8.6665C19.5 8.6665 19.5 2.1665 13 2.1665Z" fill="#7C8F87"></path></svg>