<svg xmlns="http://www.w3.org/2000/svg" width="352" height="140" viewBox="0 0 352 140" fill="none"><circle opacity="0.32" cx="61.0234" cy="71.5" r="57.5" fill="#D9E3D7"></circle><rect x="58.2402" y="5" width="90" height="90" rx="6" transform="rotate(42.426 58.2402 5)" fill="#242F22"></rect><rect x="60.0996" y="17.0293" width="74" height="74" rx="5" transform="rotate(43.0836 60.0996 17.0293)" fill="#242F22" stroke="#C9AD5A" stroke-width="1.8"></rect><path d="M50.2914 90C49.7714 90 49.5114 89.8093 49.5114 89.428C49.5114 89.116 49.7368 88.908 50.1874 88.804L51.3834 88.596C52.1114 88.4573 52.5794 88.2667 52.7874 88.024C53.0301 87.7813 53.1514 87.296 53.1514 86.568V55.992C53.1514 55.264 53.0301 54.7787 52.7874 54.536C52.5794 54.2933 52.1114 54.1027 51.3834 53.964L50.1874 53.756C49.7368 53.652 49.5114 53.444 49.5114 53.132C49.5114 52.7507 49.7714 52.56 50.2914 52.56H60.8474C62.5808 52.56 64.1234 52.924 65.4754 53.652C66.8274 54.38 67.8848 55.368 68.6474 56.616C69.4448 57.864 69.8434 59.2853 69.8434 60.88C69.8434 62.44 69.3754 63.896 68.4394 65.248C67.5381 66.5653 66.2208 67.6747 64.4874 68.576C64.2794 68.68 64.1754 68.8187 64.1754 68.992C64.1754 69.1653 64.2968 69.2867 64.5394 69.356C66.8968 70.1533 68.7168 71.436 69.9994 73.204C71.2821 74.9373 71.9234 77 71.9234 79.392C71.9234 81.4373 71.4554 83.2747 70.5194 84.904C69.5834 86.4987 68.2834 87.7467 66.6194 88.648C64.9901 89.5493 63.1354 90 61.0554 90H50.2914ZM59.5994 68.628C61.4368 68.628 62.9621 67.9173 64.1754 66.496C65.4234 65.04 66.0474 63.2373 66.0474 61.088C66.0474 58.9387 65.4581 57.2053 64.2794 55.888C63.1008 54.536 61.5408 53.86 59.5994 53.86C57.7621 53.86 56.8434 54.5533 56.8434 55.94V65.768C56.8434 66.7733 57.0514 67.5013 57.4674 67.952C57.9181 68.4027 58.6288 68.628 59.5994 68.628ZM60.3794 88.7C62.6328 88.7 64.4701 87.8507 65.8914 86.152C67.3128 84.4187 68.0234 82.1133 68.0234 79.236C68.0234 76.3587 67.2954 74.088 65.8394 72.424C64.4181 70.76 62.4941 69.928 60.0674 69.928C57.9181 69.928 56.8434 70.7773 56.8434 72.476V85.112C56.8434 87.504 58.0221 88.7 60.3794 88.7Z" fill="white"></path><path d="M151.611 68.5C151.291 68.5 151.131 68.3827 151.131 68.148C151.131 67.956 151.27 67.828 151.547 67.764L152.283 67.636C152.731 67.5507 153.019 67.4333 153.147 67.284C153.297 67.1347 153.371 66.836 153.371 66.388V47.572C153.371 47.124 153.297 46.8253 153.147 46.676C153.019 46.5267 152.731 46.4093 152.283 46.324L151.547 46.196C151.27 46.132 151.131 46.004 151.131 45.812C151.131 45.5773 151.291 45.46 151.611 45.46H158.107C159.174 45.46 160.123 45.684 160.955 46.132C161.787 46.58 162.438 47.188 162.907 47.956C163.398 48.724 163.643 49.5987 163.643 50.58C163.643 51.54 163.355 52.436 162.779 53.268C162.225 54.0787 161.414 54.7613 160.347 55.316C160.219 55.38 160.155 55.4653 160.155 55.572C160.155 55.6787 160.23 55.7533 160.379 55.796C161.83 56.2867 162.95 57.076 163.739 58.164C164.529 59.2307 164.923 60.5 164.923 61.972C164.923 63.2307 164.635 64.3613 164.059 65.364C163.483 66.3453 162.683 67.1133 161.659 67.668C160.657 68.2227 159.515 68.5 158.235 68.5H151.611ZM157.339 55.348C158.47 55.348 159.409 54.9107 160.155 54.036C160.923 53.14 161.307 52.0307 161.307 50.708C161.307 49.3853 160.945 48.3187 160.219 47.508C159.494 46.676 158.534 46.26 157.339 46.26C156.209 46.26 155.643 46.6867 155.643 47.54V53.588C155.643 54.2067 155.771 54.6547 156.027 54.932C156.305 55.2093 156.742 55.348 157.339 55.348ZM157.819 67.7C159.206 67.7 160.337 67.1773 161.211 66.132C162.086 65.0653 162.523 63.6467 162.523 61.876C162.523 60.1053 162.075 58.708 161.179 57.684C160.305 56.66 159.121 56.148 157.627 56.148C156.305 56.148 155.643 56.6707 155.643 57.716V65.492C155.643 66.964 156.369 67.7 157.819 67.7ZM172.709 68.5C172.389 68.5 172.229 68.3933 172.229 68.18C172.229 67.9667 172.378 67.828 172.677 67.764L173.157 67.668C173.583 67.5827 173.903 67.38 174.117 67.06C174.33 66.7187 174.511 66.2493 174.661 65.652L179.621 45.652C179.663 45.4387 179.727 45.3 179.813 45.236C179.919 45.172 180.015 45.14 180.101 45.14C180.207 45.14 180.303 45.172 180.389 45.236C180.495 45.3 180.57 45.4387 180.613 45.652L185.669 65.94C185.818 66.5373 185.989 66.9533 186.181 67.188C186.373 67.4227 186.671 67.5827 187.077 67.668L187.557 67.764C187.855 67.828 188.005 67.9667 188.005 68.18C188.005 68.3933 187.845 68.5 187.525 68.5H182.053C181.754 68.5 181.605 68.3827 181.605 68.148C181.605 67.9133 181.786 67.7853 182.149 67.764L182.757 67.7C183.119 67.6573 183.343 67.54 183.429 67.348C183.535 67.156 183.535 66.8253 183.429 66.356L182.213 61.396C182.085 60.8413 181.733 60.564 181.157 60.564H177.797C177.242 60.564 176.89 60.8413 176.741 61.396L175.653 65.684C175.333 66.9 175.653 67.572 176.613 67.7L177.093 67.764C177.455 67.828 177.637 67.956 177.637 68.148C177.637 68.3827 177.487 68.5 177.189 68.5H172.709ZM177.701 59.604H181.221C181.562 59.604 181.701 59.4227 181.637 59.06L179.589 50.484H179.429L177.285 59.06C177.221 59.4227 177.359 59.604 177.701 59.604ZM195.205 68.5C194.885 68.5 194.725 68.3827 194.725 68.148C194.725 67.956 194.864 67.828 195.141 67.764L195.877 67.636C196.325 67.5507 196.613 67.4333 196.741 67.284C196.891 67.1347 196.965 66.836 196.965 66.388V47.572C196.965 47.124 196.891 46.8253 196.741 46.676C196.613 46.5267 196.325 46.4093 195.877 46.324L195.141 46.196C194.864 46.132 194.725 46.004 194.725 45.812C194.725 45.5773 194.885 45.46 195.205 45.46H201.061C201.381 45.46 201.541 45.588 201.541 45.844C201.541 46.036 201.424 46.1533 201.189 46.196L200.325 46.324C199.877 46.388 199.579 46.5053 199.429 46.676C199.301 46.8467 199.237 47.156 199.237 47.604V65.524C199.237 66.292 199.451 66.8467 199.877 67.188C200.325 67.5293 200.88 67.7 201.541 67.7C202.032 67.7 202.533 67.604 203.045 67.412C203.579 67.1987 204.059 66.8147 204.485 66.26C204.912 65.684 205.232 64.852 205.445 63.764L205.861 61.62C205.925 61.3427 206.085 61.204 206.341 61.204C206.64 61.204 206.768 61.3853 206.725 61.748L206.341 67.764C206.299 68.2547 206.032 68.5 205.541 68.5H195.205ZM214.24 68.5C213.92 68.5 213.76 68.3933 213.76 68.18C213.76 67.9667 213.909 67.828 214.208 67.764L214.688 67.668C215.115 67.5827 215.435 67.38 215.648 67.06C215.861 66.7187 216.043 66.2493 216.192 65.652L221.152 45.652C221.195 45.4387 221.259 45.3 221.344 45.236C221.451 45.172 221.547 45.14 221.632 45.14C221.739 45.14 221.835 45.172 221.92 45.236C222.027 45.3 222.101 45.4387 222.144 45.652L227.2 65.94C227.349 66.5373 227.52 66.9533 227.712 67.188C227.904 67.4227 228.203 67.5827 228.608 67.668L229.088 67.764C229.387 67.828 229.536 67.9667 229.536 68.18C229.536 68.3933 229.376 68.5 229.056 68.5H223.584C223.285 68.5 223.136 68.3827 223.136 68.148C223.136 67.9133 223.317 67.7853 223.68 67.764L224.288 67.7C224.651 67.6573 224.875 67.54 224.96 67.348C225.067 67.156 225.067 66.8253 224.96 66.356L223.744 61.396C223.616 60.8413 223.264 60.564 222.688 60.564H219.328C218.773 60.564 218.421 60.8413 218.272 61.396L217.184 65.684C216.864 66.9 217.184 67.572 218.144 67.7L218.624 67.764C218.987 67.828 219.168 67.956 219.168 68.148C219.168 68.3827 219.019 68.5 218.72 68.5H214.24ZM219.232 59.604H222.752C223.093 59.604 223.232 59.4227 223.168 59.06L221.12 50.484H220.96L218.816 59.06C218.752 59.4227 218.891 59.604 219.232 59.604ZM236.736 68.5C236.416 68.5 236.256 68.3827 236.256 68.148C236.256 67.956 236.395 67.828 236.672 67.764L237.408 67.636C237.856 67.5507 238.144 67.4333 238.272 67.284C238.422 67.1347 238.496 66.836 238.496 66.388V47.572C238.496 47.124 238.422 46.8253 238.272 46.676C238.144 46.5267 237.856 46.4093 237.408 46.324L236.672 46.196C236.395 46.132 236.256 46.004 236.256 45.812C236.256 45.5773 236.416 45.46 236.736 45.46H242.592C242.912 45.46 243.072 45.588 243.072 45.844C243.072 46.036 242.955 46.1533 242.72 46.196L241.856 46.324C241.408 46.388 241.11 46.5053 240.96 46.676C240.832 46.8467 240.768 47.156 240.768 47.604V56.244C240.768 56.4573 240.832 56.5853 240.96 56.628C241.088 56.6707 241.206 56.596 241.312 56.404L246.56 48.18C247.264 47.092 247.2 46.4733 246.368 46.324L245.632 46.196C245.355 46.132 245.216 45.9933 245.216 45.78C245.216 45.5667 245.366 45.46 245.664 45.46H251.104C251.403 45.46 251.552 45.5773 251.552 45.812C251.552 46.0467 251.414 46.1747 251.136 46.196L250.528 46.26C249.867 46.324 249.323 46.516 248.896 46.836C248.47 47.156 247.99 47.732 247.456 48.564L243.84 54.228C243.627 54.5907 243.616 54.9427 243.808 55.284L249.824 66.612C249.995 66.9533 250.166 67.1987 250.336 67.348C250.528 67.4973 250.752 67.5933 251.008 67.636L251.776 67.764C252.032 67.7853 252.16 67.9133 252.16 68.148C252.16 68.3827 252.011 68.5 251.712 68.5H246.016C245.718 68.5 245.568 68.3827 245.568 68.148C245.568 67.9347 245.707 67.8067 245.984 67.764L246.528 67.7C247.36 67.5933 247.531 67.0707 247.04 66.132L242.432 57.364C242.347 57.1933 242.251 57.108 242.144 57.108C242.038 57.0867 241.931 57.1613 241.824 57.332L241.152 58.388C241.003 58.6013 240.896 58.804 240.832 58.996C240.79 59.188 240.768 59.4333 240.768 59.732V66.356C240.768 66.804 240.832 67.1133 240.96 67.284C241.11 67.4547 241.408 67.572 241.856 67.636L242.72 67.764C242.955 67.8067 243.072 67.924 243.072 68.116C243.072 68.372 242.912 68.5 242.592 68.5H236.736ZM259.236 68.5C258.916 68.5 258.756 68.3827 258.756 68.148C258.756 67.956 258.895 67.828 259.172 67.764L259.908 67.636C260.356 67.5507 260.644 67.4333 260.772 67.284C260.922 67.1347 260.996 66.836 260.996 66.388V47.572C260.996 47.124 260.922 46.8253 260.772 46.676C260.644 46.5267 260.356 46.4093 259.908 46.324L259.172 46.196C258.895 46.132 258.756 46.004 258.756 45.812C258.756 45.5773 258.916 45.46 259.236 45.46H265.092C265.412 45.46 265.572 45.588 265.572 45.844C265.572 46.036 265.455 46.1533 265.22 46.196L264.356 46.324C263.908 46.388 263.61 46.5053 263.46 46.676C263.332 46.8467 263.268 47.156 263.268 47.604V55.636C263.268 55.9347 263.418 56.084 263.716 56.084H270.052C270.351 56.084 270.5 55.9347 270.5 55.636V47.604C270.5 47.156 270.426 46.8467 270.276 46.676C270.148 46.5053 269.86 46.388 269.412 46.324L268.548 46.196C268.314 46.1533 268.196 46.036 268.196 45.844C268.196 45.588 268.356 45.46 268.676 45.46H274.532C274.852 45.46 275.012 45.5773 275.012 45.812C275.012 46.004 274.874 46.132 274.596 46.196L273.86 46.324C273.412 46.4093 273.114 46.5267 272.964 46.676C272.836 46.8253 272.772 47.124 272.772 47.572V66.388C272.772 66.836 272.836 67.1347 272.964 67.284C273.114 67.4333 273.412 67.5507 273.86 67.636L274.596 67.764C274.874 67.828 275.012 67.956 275.012 68.148C275.012 68.3827 274.852 68.5 274.532 68.5H268.676C268.356 68.5 268.196 68.372 268.196 68.116C268.196 67.924 268.314 67.8067 268.548 67.764L269.412 67.636C269.86 67.572 270.148 67.4547 270.276 67.284C270.426 67.1133 270.5 66.804 270.5 66.356V57.492C270.5 57.1933 270.351 57.044 270.052 57.044H263.716C263.418 57.044 263.268 57.1933 263.268 57.492V66.356C263.268 66.804 263.332 67.1133 263.46 67.284C263.61 67.4547 263.908 67.572 264.356 67.636L265.22 67.764C265.455 67.8067 265.572 67.924 265.572 68.116C265.572 68.372 265.412 68.5 265.092 68.5H259.236ZM282.021 68.5C281.701 68.5 281.541 68.3933 281.541 68.18C281.541 67.9667 281.691 67.828 281.989 67.764L282.469 67.668C282.896 67.5827 283.216 67.38 283.429 67.06C283.643 66.7187 283.824 66.2493 283.973 65.652L288.933 45.652C288.976 45.4387 289.04 45.3 289.125 45.236C289.232 45.172 289.328 45.14 289.413 45.14C289.52 45.14 289.616 45.172 289.701 45.236C289.808 45.3 289.883 45.4387 289.925 45.652L294.981 65.94C295.131 66.5373 295.301 66.9533 295.493 67.188C295.685 67.4227 295.984 67.5827 296.389 67.668L296.869 67.764C297.168 67.828 297.317 67.9667 297.317 68.18C297.317 68.3933 297.157 68.5 296.837 68.5H291.365C291.067 68.5 290.917 68.3827 290.917 68.148C290.917 67.9133 291.099 67.7853 291.461 67.764L292.069 67.7C292.432 67.6573 292.656 67.54 292.741 67.348C292.848 67.156 292.848 66.8253 292.741 66.356L291.525 61.396C291.397 60.8413 291.045 60.564 290.469 60.564H287.109C286.555 60.564 286.203 60.8413 286.053 61.396L284.965 65.684C284.645 66.9 284.965 67.572 285.925 67.7L286.405 67.764C286.768 67.828 286.949 67.956 286.949 68.148C286.949 68.3827 286.8 68.5 286.501 68.5H282.021ZM287.013 59.604H290.533C290.875 59.604 291.013 59.4227 290.949 59.06L288.901 50.484H288.741L286.597 59.06C286.533 59.4227 286.672 59.604 287.013 59.604ZM317.158 68.788C316.816 68.788 316.528 68.532 316.294 68.02L307.622 49.204C307.558 49.0547 307.472 48.9907 307.366 49.012C307.28 49.0333 307.238 49.1293 307.238 49.3V65.748C307.238 66.3453 307.334 66.804 307.526 67.124C307.739 67.4227 308.112 67.6147 308.646 67.7L309.062 67.764C309.339 67.7853 309.478 67.9133 309.478 68.148C309.478 68.3827 309.318 68.5 308.998 68.5H304.422C304.102 68.5 303.942 68.3827 303.942 68.148C303.942 67.9133 304.08 67.7853 304.358 67.764L304.774 67.7C305.328 67.6147 305.712 67.4227 305.926 67.124C306.139 66.804 306.246 66.3453 306.246 65.748V47.572C306.246 47.124 306.171 46.8253 306.022 46.676C305.894 46.5267 305.584 46.4093 305.094 46.324L304.358 46.196C304.08 46.132 303.942 46.004 303.942 45.812C303.942 45.5773 304.102 45.46 304.422 45.46H307.846C308.379 45.46 308.752 45.6947 308.966 46.164L316.518 62.772C316.582 62.9 316.656 62.9533 316.742 62.932C316.848 62.9107 316.902 62.836 316.902 62.708V48.212C316.902 47.5293 316.784 47.06 316.55 46.804C316.315 46.5267 316.016 46.356 315.654 46.292L315.078 46.196C314.8 46.132 314.662 46.004 314.662 45.812C314.662 45.5773 314.822 45.46 315.142 45.46H319.718C320.038 45.46 320.198 45.5773 320.198 45.812C320.198 46.0467 320.059 46.1747 319.782 46.196L319.366 46.26C318.811 46.3453 318.427 46.5267 318.214 46.804C318 47.06 317.894 47.5293 317.894 48.212V67.764C317.894 68.148 317.819 68.4147 317.67 68.564C317.542 68.7133 317.371 68.788 317.158 68.788ZM328.799 68.5C328.479 68.5 328.319 68.3827 328.319 68.148C328.319 67.956 328.458 67.828 328.735 67.764L329.471 67.636C329.919 67.5507 330.207 67.4333 330.335 67.284C330.484 67.1347 330.559 66.836 330.559 66.388V47.572C330.559 47.124 330.484 46.8253 330.335 46.676C330.207 46.5267 329.919 46.4093 329.471 46.324L328.735 46.196C328.458 46.132 328.319 46.004 328.319 45.812C328.319 45.5773 328.479 45.46 328.799 45.46H339.551C340.042 45.46 340.308 45.7053 340.351 46.196L340.607 51.508C340.65 51.8707 340.511 52.052 340.191 52.052C339.935 52.052 339.786 51.9133 339.743 51.636L339.551 50.452C339.316 49.0013 338.836 47.9453 338.111 47.284C337.386 46.6013 336.383 46.26 335.103 46.26C334.25 46.26 333.652 46.388 333.311 46.644C332.991 46.8787 332.831 47.3053 332.831 47.924V55.636C332.831 55.9347 332.98 56.084 333.279 56.084H334.879C335.818 56.084 336.394 55.5827 336.607 54.58L336.927 52.98C337.012 52.66 337.194 52.5213 337.471 52.564C337.706 52.6067 337.823 52.788 337.823 53.108V60.308C337.823 60.628 337.706 60.8093 337.471 60.852C337.194 60.8947 337.012 60.756 336.927 60.436L336.607 58.868C336.458 58.1213 336.244 57.6307 335.967 57.396C335.711 57.1613 335.338 57.044 334.847 57.044H333.279C332.98 57.044 332.831 57.1933 332.831 57.492V65.524C332.831 66.292 333.023 66.8467 333.407 67.188C333.812 67.5293 334.538 67.7 335.583 67.7C336.65 67.7 337.556 67.4333 338.303 66.9C339.071 66.3453 339.604 65.3213 339.903 63.828L340.287 61.94C340.351 61.6627 340.511 61.524 340.767 61.524C341.066 61.524 341.194 61.7053 341.151 62.068L340.831 67.764C340.788 68.2547 340.522 68.5 340.031 68.5H328.799Z" fill="#242F22"></path><path d="M155.563 98.34C155.521 98.34 155.473 98.324 155.419 98.292C155.366 98.26 155.329 98.1907 155.307 98.084L152.891 88.276C152.881 88.2013 152.849 88.1693 152.795 88.18C152.742 88.18 152.715 88.2173 152.715 88.292L152.395 97.124C152.385 97.4227 152.433 97.652 152.539 97.812C152.646 97.9613 152.833 98.0573 153.099 98.1L153.307 98.132C153.446 98.1427 153.515 98.2067 153.515 98.324C153.515 98.4413 153.435 98.5 153.275 98.5H150.987C150.827 98.5 150.747 98.4413 150.747 98.324C150.747 98.2067 150.817 98.1427 150.955 98.132L151.163 98.1C151.441 98.0573 151.627 97.9613 151.723 97.812C151.83 97.652 151.889 97.4227 151.899 97.124L152.219 88.036C152.23 87.812 152.198 87.6627 152.123 87.588C152.049 87.5133 151.889 87.4547 151.643 87.412L151.275 87.348C151.137 87.316 151.067 87.252 151.067 87.156C151.067 87.0387 151.147 86.98 151.307 86.98H153.227C153.558 86.98 153.761 87.14 153.835 87.46L155.771 95.444C155.793 95.5187 155.825 95.556 155.867 95.556C155.921 95.556 155.953 95.5187 155.963 95.444L157.979 87.38C158.043 87.1133 158.214 86.98 158.491 86.98H160.379C160.539 86.98 160.619 87.0387 160.619 87.156C160.619 87.252 160.55 87.316 160.411 87.348L160.043 87.412C159.819 87.4547 159.67 87.5133 159.595 87.588C159.521 87.6627 159.489 87.812 159.499 88.036L159.819 97.444C159.83 97.668 159.867 97.8173 159.931 97.892C159.995 97.9667 160.139 98.0253 160.363 98.068L160.731 98.132C160.87 98.164 160.939 98.228 160.939 98.324C160.939 98.4413 160.859 98.5 160.699 98.5H157.803C157.643 98.5 157.563 98.4413 157.563 98.324C157.563 98.228 157.633 98.164 157.771 98.132L158.139 98.068C158.363 98.0253 158.513 97.9667 158.587 97.892C158.662 97.8173 158.694 97.668 158.683 97.444L158.411 88.292C158.411 88.2173 158.385 88.18 158.331 88.18C158.289 88.1693 158.257 88.196 158.235 88.26L155.803 98.084C155.782 98.1907 155.745 98.26 155.691 98.292C155.649 98.324 155.606 98.34 155.563 98.34ZM176.583 98.5C176.423 98.5 176.343 98.4413 176.343 98.324C176.343 98.228 176.412 98.164 176.551 98.132L176.919 98.068C177.143 98.0253 177.287 97.9667 177.351 97.892C177.426 97.8173 177.463 97.668 177.463 97.444V88.036C177.463 87.812 177.426 87.6627 177.351 87.588C177.287 87.5133 177.143 87.4547 176.919 87.412L176.551 87.348C176.412 87.316 176.343 87.252 176.343 87.156C176.343 87.0387 176.423 86.98 176.583 86.98H181.959C182.204 86.98 182.338 87.1027 182.359 87.348L182.487 90.004C182.508 90.1853 182.439 90.276 182.279 90.276C182.151 90.276 182.076 90.2067 182.055 90.068L181.959 89.476C181.842 88.7507 181.602 88.2227 181.239 87.892C180.876 87.5507 180.375 87.38 179.735 87.38C179.308 87.38 179.01 87.444 178.839 87.572C178.679 87.6893 178.599 87.9027 178.599 88.212V92.068C178.599 92.2173 178.674 92.292 178.823 92.292H179.623C180.092 92.292 180.38 92.0413 180.487 91.54L180.647 90.74C180.69 90.58 180.78 90.5107 180.919 90.532C181.036 90.5533 181.095 90.644 181.095 90.804V94.404C181.095 94.564 181.036 94.6547 180.919 94.676C180.78 94.6973 180.69 94.628 180.647 94.468L180.487 93.684C180.412 93.3107 180.306 93.0653 180.167 92.948C180.039 92.8307 179.852 92.772 179.607 92.772H178.823C178.674 92.772 178.599 92.8467 178.599 92.996V97.012C178.599 97.396 178.695 97.6733 178.887 97.844C179.09 98.0147 179.452 98.1 179.975 98.1C180.508 98.1 180.962 97.9667 181.335 97.7C181.719 97.4227 181.986 96.9107 182.135 96.164L182.327 95.22C182.359 95.0813 182.439 95.012 182.567 95.012C182.716 95.012 182.78 95.1027 182.759 95.284L182.599 98.132C182.578 98.3773 182.444 98.5 182.199 98.5H176.583ZM198.833 98.5C198.673 98.5 198.593 98.4413 198.593 98.324C198.593 98.228 198.662 98.164 198.801 98.132L199.169 98.068C199.532 98.004 199.713 97.796 199.713 97.444V88.036C199.713 87.812 199.676 87.6627 199.601 87.588C199.537 87.5133 199.393 87.4547 199.169 87.412L198.801 87.348C198.662 87.316 198.593 87.252 198.593 87.156C198.593 87.0387 198.673 86.98 198.833 86.98H202.065C202.897 86.98 203.617 87.2253 204.225 87.716C204.833 88.196 205.302 88.8733 205.633 89.748C205.964 90.6227 206.129 91.636 206.129 92.788C206.129 93.9507 205.953 94.9587 205.601 95.812C205.26 96.6653 204.774 97.3267 204.145 97.796C203.516 98.2653 202.769 98.5 201.905 98.5H198.833ZM201.969 98.084C202.918 98.084 203.638 97.6307 204.129 96.724C204.63 95.8173 204.881 94.5053 204.881 92.788C204.881 91.0813 204.641 89.7587 204.161 88.82C203.692 87.8707 202.993 87.396 202.065 87.396C201.254 87.396 200.849 87.7853 200.849 88.564V96.916C200.849 97.3427 200.934 97.6467 201.105 97.828C201.286 97.9987 201.574 98.084 201.969 98.084ZM222.161 98.5C222.001 98.5 221.921 98.4413 221.921 98.324C221.921 98.228 221.991 98.164 222.129 98.132L222.497 98.068C222.721 98.0253 222.865 97.9667 222.929 97.892C223.004 97.8173 223.041 97.668 223.041 97.444V88.036C223.041 87.812 223.004 87.6627 222.929 87.588C222.865 87.5133 222.721 87.4547 222.497 87.412L222.129 87.348C221.991 87.316 221.921 87.252 221.921 87.156C221.921 87.0387 222.001 86.98 222.161 86.98H225.057C225.217 86.98 225.297 87.0387 225.297 87.156C225.297 87.252 225.228 87.316 225.089 87.348L224.721 87.412C224.497 87.4547 224.348 87.5133 224.273 87.588C224.209 87.6627 224.177 87.812 224.177 88.036V97.444C224.177 97.668 224.209 97.8173 224.273 97.892C224.348 97.9667 224.497 98.0253 224.721 98.068L225.089 98.132C225.228 98.164 225.297 98.228 225.297 98.324C225.297 98.4413 225.217 98.5 225.057 98.5H222.161ZM240.304 98.5C240.144 98.5 240.064 98.4467 240.064 98.34C240.064 98.2333 240.138 98.164 240.288 98.132L240.528 98.084C240.741 98.0413 240.901 97.94 241.008 97.78C241.114 97.6093 241.205 97.3747 241.28 97.076L243.76 87.076C243.781 86.9693 243.813 86.9 243.856 86.868C243.909 86.836 243.957 86.82 244 86.82C244.053 86.82 244.101 86.836 244.144 86.868C244.197 86.9 244.234 86.9693 244.256 87.076L246.784 97.22C246.858 97.5187 246.944 97.7267 247.04 97.844C247.136 97.9613 247.285 98.0413 247.488 98.084L247.728 98.132C247.877 98.164 247.952 98.2333 247.952 98.34C247.952 98.4467 247.872 98.5 247.712 98.5H244.976C244.826 98.5 244.752 98.4413 244.752 98.324C244.752 98.2067 244.842 98.1427 245.024 98.132L245.328 98.1C245.509 98.0787 245.621 98.02 245.664 97.924C245.717 97.828 245.717 97.6627 245.664 97.428L245.056 94.948C244.992 94.6707 244.816 94.532 244.528 94.532H242.848C242.57 94.532 242.394 94.6707 242.32 94.948L241.776 97.092C241.616 97.7 241.776 98.036 242.256 98.1L242.496 98.132C242.677 98.164 242.768 98.228 242.768 98.324C242.768 98.4413 242.693 98.5 242.544 98.5H240.304ZM242.8 94.052H244.56C244.73 94.052 244.8 93.9613 244.768 93.78L243.744 89.492H243.664L242.592 93.78C242.56 93.9613 242.629 94.052 242.8 94.052ZM263.88 98.5C263.72 98.5 263.64 98.4413 263.64 98.324C263.64 98.2067 263.71 98.1427 263.848 98.132L264.568 98.02C264.782 97.988 264.926 97.9347 265 97.86C265.075 97.7747 265.112 97.62 265.112 97.396V87.796C265.112 87.6467 265.08 87.54 265.016 87.476C264.952 87.412 264.819 87.38 264.616 87.38C264.222 87.38 263.832 87.5507 263.448 87.892C263.064 88.2333 262.814 88.7827 262.696 89.54L262.616 90.068C262.595 90.2067 262.52 90.276 262.392 90.276C262.232 90.276 262.163 90.1853 262.184 90.004L262.328 87.108C262.35 86.8627 262.446 86.74 262.616 86.74C262.691 86.74 262.76 86.7613 262.824 86.804C262.888 86.836 262.995 86.8733 263.144 86.916C263.304 86.9587 263.555 86.98 263.896 86.98H267.464C267.806 86.98 268.051 86.9587 268.2 86.916C268.36 86.8733 268.472 86.836 268.536 86.804C268.611 86.7613 268.68 86.74 268.744 86.74C268.915 86.74 269.011 86.8627 269.032 87.108L269.176 90.004C269.198 90.1853 269.128 90.276 268.968 90.276C268.84 90.276 268.766 90.2067 268.744 90.068L268.664 89.54C268.558 88.7827 268.312 88.2333 267.928 87.892C267.544 87.5507 267.15 87.38 266.744 87.38C266.542 87.38 266.408 87.412 266.344 87.476C266.28 87.54 266.248 87.6467 266.248 87.796V97.396C266.248 97.62 266.286 97.7747 266.36 97.86C266.446 97.9347 266.59 97.988 266.792 98.02L267.512 98.132C267.651 98.1427 267.72 98.2067 267.72 98.324C267.72 98.4413 267.64 98.5 267.48 98.5H263.88ZM284.911 98.5C284.751 98.5 284.671 98.4413 284.671 98.324C284.671 98.228 284.741 98.164 284.879 98.132L285.247 98.068C285.471 98.0253 285.615 97.9667 285.679 97.892C285.754 97.8173 285.791 97.668 285.791 97.444V88.036C285.791 87.812 285.754 87.6627 285.679 87.588C285.615 87.5133 285.471 87.4547 285.247 87.412L284.879 87.348C284.741 87.316 284.671 87.252 284.671 87.156C284.671 87.0387 284.751 86.98 284.911 86.98H287.807C287.967 86.98 288.047 87.0387 288.047 87.156C288.047 87.252 287.978 87.316 287.839 87.348L287.471 87.412C287.247 87.4547 287.098 87.5133 287.023 87.588C286.959 87.6627 286.927 87.812 286.927 88.036V97.444C286.927 97.668 286.959 97.8173 287.023 97.892C287.098 97.9667 287.247 98.0253 287.471 98.068L287.839 98.132C287.978 98.164 288.047 98.228 288.047 98.324C288.047 98.4413 287.967 98.5 287.807 98.5H284.911ZM307.672 98.644C307.16 98.644 306.68 98.4947 306.232 98.196C305.784 97.8867 305.389 97.4653 305.048 96.932C304.717 96.3987 304.456 95.7747 304.264 95.06C304.082 94.3347 303.992 93.556 303.992 92.724C303.992 91.892 304.082 91.1187 304.264 90.404C304.456 89.6893 304.717 89.0653 305.048 88.532C305.389 87.988 305.784 87.5667 306.232 87.268C306.68 86.9693 307.16 86.82 307.672 86.82C308.184 86.82 308.658 86.9693 309.096 87.268C309.544 87.5667 309.938 87.988 310.28 88.532C310.621 89.0653 310.882 89.6893 311.064 90.404C311.256 91.1187 311.352 91.892 311.352 92.724C311.352 93.556 311.256 94.3347 311.064 95.06C310.882 95.7747 310.621 96.3987 310.28 96.932C309.938 97.4653 309.544 97.8867 309.096 98.196C308.658 98.4947 308.184 98.644 307.672 98.644ZM307.672 98.212C308.429 98.212 309.021 97.7587 309.448 96.852C309.874 95.9453 310.088 94.5693 310.088 92.724C310.088 90.8787 309.874 89.508 309.448 88.612C309.021 87.7053 308.429 87.252 307.672 87.252C306.925 87.252 306.333 87.7053 305.896 88.612C305.469 89.508 305.256 90.8787 305.256 92.724C305.256 94.5693 305.469 95.9453 305.896 96.852C306.333 97.7587 306.925 98.212 307.672 98.212ZM333.731 98.644C333.561 98.644 333.417 98.516 333.299 98.26L328.963 88.852C328.931 88.7773 328.889 88.7453 328.835 88.756C328.793 88.7667 328.771 88.8147 328.771 88.9V97.124C328.771 97.4227 328.819 97.652 328.915 97.812C329.022 97.9613 329.209 98.0573 329.475 98.1L329.683 98.132C329.822 98.1427 329.891 98.2067 329.891 98.324C329.891 98.4413 329.811 98.5 329.651 98.5H327.363C327.203 98.5 327.123 98.4413 327.123 98.324C327.123 98.2067 327.193 98.1427 327.331 98.132L327.539 98.1C327.817 98.0573 328.009 97.9613 328.115 97.812C328.222 97.652 328.275 97.4227 328.275 97.124V88.036C328.275 87.812 328.238 87.6627 328.163 87.588C328.099 87.5133 327.945 87.4547 327.699 87.412L327.331 87.348C327.193 87.316 327.123 87.252 327.123 87.156C327.123 87.0387 327.203 86.98 327.363 86.98H329.075C329.342 86.98 329.529 87.0973 329.635 87.332L333.411 95.636C333.443 95.7 333.481 95.7267 333.523 95.716C333.577 95.7053 333.603 95.668 333.603 95.604V88.356C333.603 88.0147 333.545 87.78 333.427 87.652C333.31 87.5133 333.161 87.428 332.979 87.396L332.691 87.348C332.553 87.316 332.483 87.252 332.483 87.156C332.483 87.0387 332.563 86.98 332.723 86.98H335.011C335.171 86.98 335.251 87.0387 335.251 87.156C335.251 87.2733 335.182 87.3373 335.043 87.348L334.835 87.38C334.558 87.4227 334.366 87.5133 334.259 87.652C334.153 87.78 334.099 88.0147 334.099 88.356V98.132C334.099 98.324 334.062 98.4573 333.987 98.532C333.923 98.6067 333.838 98.644 333.731 98.644Z" fill="#242F22"></path></svg>