<svg xmlns="http://www.w3.org/2000/svg" width="353" height="140" viewBox="0 0 353 140" fill="none"><circle opacity="0.35" cx="61.5234" cy="71.5" r="57.5" fill="#4A6346"></circle><path d="M54.1924 10.4954C56.428 8.04944 60.2231 7.87883 62.6691 10.1144L120.245 62.7361C122.691 64.9716 122.861 68.7668 120.626 71.2128L68.0042 128.788C65.7686 131.234 61.9734 131.405 59.5274 129.17L1.95178 76.5478C-0.494233 74.3123 -0.664845 70.5171 1.57071 68.0711L54.1924 10.4954Z" fill="#242F22"></path><rect x="60.2402" y="18.0249" width="74" height="74" rx="5" transform="rotate(43.2375 60.2402 18.0249)" fill="#242F22" stroke="#C9AD5A" stroke-width="1.8"></rect><path d="M50.7914 90C50.2714 90 50.0114 89.8093 50.0114 89.428C50.0114 89.116 50.2368 88.908 50.6874 88.804L51.8834 88.596C52.6114 88.4573 53.0794 88.2667 53.2874 88.024C53.5301 87.7813 53.6514 87.296 53.6514 86.568V55.992C53.6514 55.264 53.5301 54.7787 53.2874 54.536C53.0794 54.2933 52.6114 54.1027 51.8834 53.964L50.6874 53.756C50.2368 53.652 50.0114 53.444 50.0114 53.132C50.0114 52.7507 50.2714 52.56 50.7914 52.56H61.3474C63.0808 52.56 64.6234 52.924 65.9754 53.652C67.3274 54.38 68.3848 55.368 69.1474 56.616C69.9448 57.864 70.3434 59.2853 70.3434 60.88C70.3434 62.44 69.8754 63.896 68.9394 65.248C68.0381 66.5653 66.7208 67.6747 64.9874 68.576C64.7794 68.68 64.6754 68.8187 64.6754 68.992C64.6754 69.1653 64.7968 69.2867 65.0394 69.356C67.3968 70.1533 69.2168 71.436 70.4994 73.204C71.7821 74.9373 72.4234 77 72.4234 79.392C72.4234 81.4373 71.9554 83.2747 71.0194 84.904C70.0834 86.4987 68.7834 87.7467 67.1194 88.648C65.4901 89.5493 63.6354 90 61.5554 90H50.7914ZM60.0994 68.628C61.9368 68.628 63.4621 67.9173 64.6754 66.496C65.9234 65.04 66.5474 63.2373 66.5474 61.088C66.5474 58.9387 65.9581 57.2053 64.7794 55.888C63.6008 54.536 62.0408 53.86 60.0994 53.86C58.2621 53.86 57.3434 54.5533 57.3434 55.94V65.768C57.3434 66.7733 57.5514 67.5013 57.9674 67.952C58.4181 68.4027 59.1288 68.628 60.0994 68.628ZM60.8794 88.7C63.1328 88.7 64.9701 87.8507 66.3914 86.152C67.8128 84.4187 68.5234 82.1133 68.5234 79.236C68.5234 76.3587 67.7954 74.088 66.3394 72.424C64.9181 70.76 62.9941 69.928 60.5674 69.928C58.4181 69.928 57.3434 70.7773 57.3434 72.476V85.112C57.3434 87.504 58.5221 88.7 60.8794 88.7Z" fill="white"></path><path d="M152.111 68.5C151.791 68.5 151.631 68.3827 151.631 68.148C151.631 67.956 151.77 67.828 152.047 67.764L152.783 67.636C153.231 67.5507 153.519 67.4333 153.647 67.284C153.797 67.1347 153.871 66.836 153.871 66.388V47.572C153.871 47.124 153.797 46.8253 153.647 46.676C153.519 46.5267 153.231 46.4093 152.783 46.324L152.047 46.196C151.77 46.132 151.631 46.004 151.631 45.812C151.631 45.5773 151.791 45.46 152.111 45.46H158.607C159.674 45.46 160.623 45.684 161.455 46.132C162.287 46.58 162.938 47.188 163.407 47.956C163.898 48.724 164.143 49.5987 164.143 50.58C164.143 51.54 163.855 52.436 163.279 53.268C162.725 54.0787 161.914 54.7613 160.847 55.316C160.719 55.38 160.655 55.4653 160.655 55.572C160.655 55.6787 160.73 55.7533 160.879 55.796C162.33 56.2867 163.45 57.076 164.239 58.164C165.029 59.2307 165.423 60.5 165.423 61.972C165.423 63.2307 165.135 64.3613 164.559 65.364C163.983 66.3453 163.183 67.1133 162.159 67.668C161.157 68.2227 160.015 68.5 158.735 68.5H152.111ZM157.839 55.348C158.97 55.348 159.909 54.9107 160.655 54.036C161.423 53.14 161.807 52.0307 161.807 50.708C161.807 49.3853 161.445 48.3187 160.719 47.508C159.994 46.676 159.034 46.26 157.839 46.26C156.709 46.26 156.143 46.6867 156.143 47.54V53.588C156.143 54.2067 156.271 54.6547 156.527 54.932C156.805 55.2093 157.242 55.348 157.839 55.348ZM158.319 67.7C159.706 67.7 160.837 67.1773 161.711 66.132C162.586 65.0653 163.023 63.6467 163.023 61.876C163.023 60.1053 162.575 58.708 161.679 57.684C160.805 56.66 159.621 56.148 158.127 56.148C156.805 56.148 156.143 56.6707 156.143 57.716V65.492C156.143 66.964 156.869 67.7 158.319 67.7ZM173.209 68.5C172.889 68.5 172.729 68.3933 172.729 68.18C172.729 67.9667 172.878 67.828 173.177 67.764L173.657 67.668C174.083 67.5827 174.403 67.38 174.617 67.06C174.83 66.7187 175.011 66.2493 175.161 65.652L180.121 45.652C180.163 45.4387 180.227 45.3 180.313 45.236C180.419 45.172 180.515 45.14 180.601 45.14C180.707 45.14 180.803 45.172 180.889 45.236C180.995 45.3 181.07 45.4387 181.113 45.652L186.169 65.94C186.318 66.5373 186.489 66.9533 186.681 67.188C186.873 67.4227 187.171 67.5827 187.577 67.668L188.057 67.764C188.355 67.828 188.505 67.9667 188.505 68.18C188.505 68.3933 188.345 68.5 188.025 68.5H182.553C182.254 68.5 182.105 68.3827 182.105 68.148C182.105 67.9133 182.286 67.7853 182.649 67.764L183.257 67.7C183.619 67.6573 183.843 67.54 183.929 67.348C184.035 67.156 184.035 66.8253 183.929 66.356L182.713 61.396C182.585 60.8413 182.233 60.564 181.657 60.564H178.297C177.742 60.564 177.39 60.8413 177.241 61.396L176.153 65.684C175.833 66.9 176.153 67.572 177.113 67.7L177.593 67.764C177.955 67.828 178.137 67.956 178.137 68.148C178.137 68.3827 177.987 68.5 177.689 68.5H173.209ZM178.201 59.604H181.721C182.062 59.604 182.201 59.4227 182.137 59.06L180.089 50.484H179.929L177.785 59.06C177.721 59.4227 177.859 59.604 178.201 59.604ZM195.705 68.5C195.385 68.5 195.225 68.3827 195.225 68.148C195.225 67.956 195.364 67.828 195.641 67.764L196.377 67.636C196.825 67.5507 197.113 67.4333 197.241 67.284C197.391 67.1347 197.465 66.836 197.465 66.388V47.572C197.465 47.124 197.391 46.8253 197.241 46.676C197.113 46.5267 196.825 46.4093 196.377 46.324L195.641 46.196C195.364 46.132 195.225 46.004 195.225 45.812C195.225 45.5773 195.385 45.46 195.705 45.46H201.561C201.881 45.46 202.041 45.588 202.041 45.844C202.041 46.036 201.924 46.1533 201.689 46.196L200.825 46.324C200.377 46.388 200.079 46.5053 199.929 46.676C199.801 46.8467 199.737 47.156 199.737 47.604V65.524C199.737 66.292 199.951 66.8467 200.377 67.188C200.825 67.5293 201.38 67.7 202.041 67.7C202.532 67.7 203.033 67.604 203.545 67.412C204.079 67.1987 204.559 66.8147 204.985 66.26C205.412 65.684 205.732 64.852 205.945 63.764L206.361 61.62C206.425 61.3427 206.585 61.204 206.841 61.204C207.14 61.204 207.268 61.3853 207.225 61.748L206.841 67.764C206.799 68.2547 206.532 68.5 206.041 68.5H195.705ZM214.74 68.5C214.42 68.5 214.26 68.3933 214.26 68.18C214.26 67.9667 214.409 67.828 214.708 67.764L215.188 67.668C215.615 67.5827 215.935 67.38 216.148 67.06C216.361 66.7187 216.543 66.2493 216.692 65.652L221.652 45.652C221.695 45.4387 221.759 45.3 221.844 45.236C221.951 45.172 222.047 45.14 222.132 45.14C222.239 45.14 222.335 45.172 222.42 45.236C222.527 45.3 222.601 45.4387 222.644 45.652L227.7 65.94C227.849 66.5373 228.02 66.9533 228.212 67.188C228.404 67.4227 228.703 67.5827 229.108 67.668L229.588 67.764C229.887 67.828 230.036 67.9667 230.036 68.18C230.036 68.3933 229.876 68.5 229.556 68.5H224.084C223.785 68.5 223.636 68.3827 223.636 68.148C223.636 67.9133 223.817 67.7853 224.18 67.764L224.788 67.7C225.151 67.6573 225.375 67.54 225.46 67.348C225.567 67.156 225.567 66.8253 225.46 66.356L224.244 61.396C224.116 60.8413 223.764 60.564 223.188 60.564H219.828C219.273 60.564 218.921 60.8413 218.772 61.396L217.684 65.684C217.364 66.9 217.684 67.572 218.644 67.7L219.124 67.764C219.487 67.828 219.668 67.956 219.668 68.148C219.668 68.3827 219.519 68.5 219.22 68.5H214.74ZM219.732 59.604H223.252C223.593 59.604 223.732 59.4227 223.668 59.06L221.62 50.484H221.46L219.316 59.06C219.252 59.4227 219.391 59.604 219.732 59.604ZM237.236 68.5C236.916 68.5 236.756 68.3827 236.756 68.148C236.756 67.956 236.895 67.828 237.172 67.764L237.908 67.636C238.356 67.5507 238.644 67.4333 238.772 67.284C238.922 67.1347 238.996 66.836 238.996 66.388V47.572C238.996 47.124 238.922 46.8253 238.772 46.676C238.644 46.5267 238.356 46.4093 237.908 46.324L237.172 46.196C236.895 46.132 236.756 46.004 236.756 45.812C236.756 45.5773 236.916 45.46 237.236 45.46H243.092C243.412 45.46 243.572 45.588 243.572 45.844C243.572 46.036 243.455 46.1533 243.22 46.196L242.356 46.324C241.908 46.388 241.61 46.5053 241.46 46.676C241.332 46.8467 241.268 47.156 241.268 47.604V56.244C241.268 56.4573 241.332 56.5853 241.46 56.628C241.588 56.6707 241.706 56.596 241.812 56.404L247.06 48.18C247.764 47.092 247.7 46.4733 246.868 46.324L246.132 46.196C245.855 46.132 245.716 45.9933 245.716 45.78C245.716 45.5667 245.866 45.46 246.164 45.46H251.604C251.903 45.46 252.052 45.5773 252.052 45.812C252.052 46.0467 251.914 46.1747 251.636 46.196L251.028 46.26C250.367 46.324 249.823 46.516 249.396 46.836C248.97 47.156 248.49 47.732 247.956 48.564L244.34 54.228C244.127 54.5907 244.116 54.9427 244.308 55.284L250.324 66.612C250.495 66.9533 250.666 67.1987 250.836 67.348C251.028 67.4973 251.252 67.5933 251.508 67.636L252.276 67.764C252.532 67.7853 252.66 67.9133 252.66 68.148C252.66 68.3827 252.511 68.5 252.212 68.5H246.516C246.218 68.5 246.068 68.3827 246.068 68.148C246.068 67.9347 246.207 67.8067 246.484 67.764L247.028 67.7C247.86 67.5933 248.031 67.0707 247.54 66.132L242.932 57.364C242.847 57.1933 242.751 57.108 242.644 57.108C242.538 57.0867 242.431 57.1613 242.324 57.332L241.652 58.388C241.503 58.6013 241.396 58.804 241.332 58.996C241.29 59.188 241.268 59.4333 241.268 59.732V66.356C241.268 66.804 241.332 67.1133 241.46 67.284C241.61 67.4547 241.908 67.572 242.356 67.636L243.22 67.764C243.455 67.8067 243.572 67.924 243.572 68.116C243.572 68.372 243.412 68.5 243.092 68.5H237.236ZM259.736 68.5C259.416 68.5 259.256 68.3827 259.256 68.148C259.256 67.956 259.395 67.828 259.672 67.764L260.408 67.636C260.856 67.5507 261.144 67.4333 261.272 67.284C261.422 67.1347 261.496 66.836 261.496 66.388V47.572C261.496 47.124 261.422 46.8253 261.272 46.676C261.144 46.5267 260.856 46.4093 260.408 46.324L259.672 46.196C259.395 46.132 259.256 46.004 259.256 45.812C259.256 45.5773 259.416 45.46 259.736 45.46H265.592C265.912 45.46 266.072 45.588 266.072 45.844C266.072 46.036 265.955 46.1533 265.72 46.196L264.856 46.324C264.408 46.388 264.11 46.5053 263.96 46.676C263.832 46.8467 263.768 47.156 263.768 47.604V55.636C263.768 55.9347 263.918 56.084 264.216 56.084H270.552C270.851 56.084 271 55.9347 271 55.636V47.604C271 47.156 270.926 46.8467 270.776 46.676C270.648 46.5053 270.36 46.388 269.912 46.324L269.048 46.196C268.814 46.1533 268.696 46.036 268.696 45.844C268.696 45.588 268.856 45.46 269.176 45.46H275.032C275.352 45.46 275.512 45.5773 275.512 45.812C275.512 46.004 275.374 46.132 275.096 46.196L274.36 46.324C273.912 46.4093 273.614 46.5267 273.464 46.676C273.336 46.8253 273.272 47.124 273.272 47.572V66.388C273.272 66.836 273.336 67.1347 273.464 67.284C273.614 67.4333 273.912 67.5507 274.36 67.636L275.096 67.764C275.374 67.828 275.512 67.956 275.512 68.148C275.512 68.3827 275.352 68.5 275.032 68.5H269.176C268.856 68.5 268.696 68.372 268.696 68.116C268.696 67.924 268.814 67.8067 269.048 67.764L269.912 67.636C270.36 67.572 270.648 67.4547 270.776 67.284C270.926 67.1133 271 66.804 271 66.356V57.492C271 57.1933 270.851 57.044 270.552 57.044H264.216C263.918 57.044 263.768 57.1933 263.768 57.492V66.356C263.768 66.804 263.832 67.1133 263.96 67.284C264.11 67.4547 264.408 67.572 264.856 67.636L265.72 67.764C265.955 67.8067 266.072 67.924 266.072 68.116C266.072 68.372 265.912 68.5 265.592 68.5H259.736ZM282.521 68.5C282.201 68.5 282.041 68.3933 282.041 68.18C282.041 67.9667 282.191 67.828 282.489 67.764L282.969 67.668C283.396 67.5827 283.716 67.38 283.929 67.06C284.143 66.7187 284.324 66.2493 284.473 65.652L289.433 45.652C289.476 45.4387 289.54 45.3 289.625 45.236C289.732 45.172 289.828 45.14 289.913 45.14C290.02 45.14 290.116 45.172 290.201 45.236C290.308 45.3 290.383 45.4387 290.425 45.652L295.481 65.94C295.631 66.5373 295.801 66.9533 295.993 67.188C296.185 67.4227 296.484 67.5827 296.889 67.668L297.369 67.764C297.668 67.828 297.817 67.9667 297.817 68.18C297.817 68.3933 297.657 68.5 297.337 68.5H291.865C291.567 68.5 291.417 68.3827 291.417 68.148C291.417 67.9133 291.599 67.7853 291.961 67.764L292.569 67.7C292.932 67.6573 293.156 67.54 293.241 67.348C293.348 67.156 293.348 66.8253 293.241 66.356L292.025 61.396C291.897 60.8413 291.545 60.564 290.969 60.564H287.609C287.055 60.564 286.703 60.8413 286.553 61.396L285.465 65.684C285.145 66.9 285.465 67.572 286.425 67.7L286.905 67.764C287.268 67.828 287.449 67.956 287.449 68.148C287.449 68.3827 287.3 68.5 287.001 68.5H282.521ZM287.513 59.604H291.033C291.375 59.604 291.513 59.4227 291.449 59.06L289.401 50.484H289.241L287.097 59.06C287.033 59.4227 287.172 59.604 287.513 59.604ZM317.658 68.788C317.316 68.788 317.028 68.532 316.794 68.02L308.122 49.204C308.058 49.0547 307.972 48.9907 307.866 49.012C307.78 49.0333 307.738 49.1293 307.738 49.3V65.748C307.738 66.3453 307.834 66.804 308.026 67.124C308.239 67.4227 308.612 67.6147 309.146 67.7L309.562 67.764C309.839 67.7853 309.978 67.9133 309.978 68.148C309.978 68.3827 309.818 68.5 309.498 68.5H304.922C304.602 68.5 304.442 68.3827 304.442 68.148C304.442 67.9133 304.58 67.7853 304.858 67.764L305.274 67.7C305.828 67.6147 306.212 67.4227 306.426 67.124C306.639 66.804 306.746 66.3453 306.746 65.748V47.572C306.746 47.124 306.671 46.8253 306.522 46.676C306.394 46.5267 306.084 46.4093 305.594 46.324L304.858 46.196C304.58 46.132 304.442 46.004 304.442 45.812C304.442 45.5773 304.602 45.46 304.922 45.46H308.346C308.879 45.46 309.252 45.6947 309.466 46.164L317.018 62.772C317.082 62.9 317.156 62.9533 317.242 62.932C317.348 62.9107 317.402 62.836 317.402 62.708V48.212C317.402 47.5293 317.284 47.06 317.05 46.804C316.815 46.5267 316.516 46.356 316.154 46.292L315.578 46.196C315.3 46.132 315.162 46.004 315.162 45.812C315.162 45.5773 315.322 45.46 315.642 45.46H320.218C320.538 45.46 320.698 45.5773 320.698 45.812C320.698 46.0467 320.559 46.1747 320.282 46.196L319.866 46.26C319.311 46.3453 318.927 46.5267 318.714 46.804C318.5 47.06 318.394 47.5293 318.394 48.212V67.764C318.394 68.148 318.319 68.4147 318.17 68.564C318.042 68.7133 317.871 68.788 317.658 68.788ZM329.299 68.5C328.979 68.5 328.819 68.3827 328.819 68.148C328.819 67.956 328.958 67.828 329.235 67.764L329.971 67.636C330.419 67.5507 330.707 67.4333 330.835 67.284C330.984 67.1347 331.059 66.836 331.059 66.388V47.572C331.059 47.124 330.984 46.8253 330.835 46.676C330.707 46.5267 330.419 46.4093 329.971 46.324L329.235 46.196C328.958 46.132 328.819 46.004 328.819 45.812C328.819 45.5773 328.979 45.46 329.299 45.46H340.051C340.542 45.46 340.808 45.7053 340.851 46.196L341.107 51.508C341.15 51.8707 341.011 52.052 340.691 52.052C340.435 52.052 340.286 51.9133 340.243 51.636L340.051 50.452C339.816 49.0013 339.336 47.9453 338.611 47.284C337.886 46.6013 336.883 46.26 335.603 46.26C334.75 46.26 334.152 46.388 333.811 46.644C333.491 46.8787 333.331 47.3053 333.331 47.924V55.636C333.331 55.9347 333.48 56.084 333.779 56.084H335.379C336.318 56.084 336.894 55.5827 337.107 54.58L337.427 52.98C337.512 52.66 337.694 52.5213 337.971 52.564C338.206 52.6067 338.323 52.788 338.323 53.108V60.308C338.323 60.628 338.206 60.8093 337.971 60.852C337.694 60.8947 337.512 60.756 337.427 60.436L337.107 58.868C336.958 58.1213 336.744 57.6307 336.467 57.396C336.211 57.1613 335.838 57.044 335.347 57.044H333.779C333.48 57.044 333.331 57.1933 333.331 57.492V65.524C333.331 66.292 333.523 66.8467 333.907 67.188C334.312 67.5293 335.038 67.7 336.083 67.7C337.15 67.7 338.056 67.4333 338.803 66.9C339.571 66.3453 340.104 65.3213 340.403 63.828L340.787 61.94C340.851 61.6627 341.011 61.524 341.267 61.524C341.566 61.524 341.694 61.7053 341.651 62.068L341.331 67.764C341.288 68.2547 341.022 68.5 340.531 68.5H329.299Z" fill="white"></path><path d="M156.063 98.34C156.021 98.34 155.973 98.324 155.919 98.292C155.866 98.26 155.829 98.1907 155.807 98.084L153.391 88.276C153.381 88.2013 153.349 88.1693 153.295 88.18C153.242 88.18 153.215 88.2173 153.215 88.292L152.895 97.124C152.885 97.4227 152.933 97.652 153.039 97.812C153.146 97.9613 153.333 98.0573 153.599 98.1L153.807 98.132C153.946 98.1427 154.015 98.2067 154.015 98.324C154.015 98.4413 153.935 98.5 153.775 98.5H151.487C151.327 98.5 151.247 98.4413 151.247 98.324C151.247 98.2067 151.317 98.1427 151.455 98.132L151.663 98.1C151.941 98.0573 152.127 97.9613 152.223 97.812C152.33 97.652 152.389 97.4227 152.399 97.124L152.719 88.036C152.73 87.812 152.698 87.6627 152.623 87.588C152.549 87.5133 152.389 87.4547 152.143 87.412L151.775 87.348C151.637 87.316 151.567 87.252 151.567 87.156C151.567 87.0387 151.647 86.98 151.807 86.98H153.727C154.058 86.98 154.261 87.14 154.335 87.46L156.271 95.444C156.293 95.5187 156.325 95.556 156.367 95.556C156.421 95.556 156.453 95.5187 156.463 95.444L158.479 87.38C158.543 87.1133 158.714 86.98 158.991 86.98H160.879C161.039 86.98 161.119 87.0387 161.119 87.156C161.119 87.252 161.05 87.316 160.911 87.348L160.543 87.412C160.319 87.4547 160.17 87.5133 160.095 87.588C160.021 87.6627 159.989 87.812 159.999 88.036L160.319 97.444C160.33 97.668 160.367 97.8173 160.431 97.892C160.495 97.9667 160.639 98.0253 160.863 98.068L161.231 98.132C161.37 98.164 161.439 98.228 161.439 98.324C161.439 98.4413 161.359 98.5 161.199 98.5H158.303C158.143 98.5 158.063 98.4413 158.063 98.324C158.063 98.228 158.133 98.164 158.271 98.132L158.639 98.068C158.863 98.0253 159.013 97.9667 159.087 97.892C159.162 97.8173 159.194 97.668 159.183 97.444L158.911 88.292C158.911 88.2173 158.885 88.18 158.831 88.18C158.789 88.1693 158.757 88.196 158.735 88.26L156.303 98.084C156.282 98.1907 156.245 98.26 156.191 98.292C156.149 98.324 156.106 98.34 156.063 98.34ZM177.083 98.5C176.923 98.5 176.843 98.4413 176.843 98.324C176.843 98.228 176.912 98.164 177.051 98.132L177.419 98.068C177.643 98.0253 177.787 97.9667 177.851 97.892C177.926 97.8173 177.963 97.668 177.963 97.444V88.036C177.963 87.812 177.926 87.6627 177.851 87.588C177.787 87.5133 177.643 87.4547 177.419 87.412L177.051 87.348C176.912 87.316 176.843 87.252 176.843 87.156C176.843 87.0387 176.923 86.98 177.083 86.98H182.459C182.704 86.98 182.838 87.1027 182.859 87.348L182.987 90.004C183.008 90.1853 182.939 90.276 182.779 90.276C182.651 90.276 182.576 90.2067 182.555 90.068L182.459 89.476C182.342 88.7507 182.102 88.2227 181.739 87.892C181.376 87.5507 180.875 87.38 180.235 87.38C179.808 87.38 179.51 87.444 179.339 87.572C179.179 87.6893 179.099 87.9027 179.099 88.212V92.068C179.099 92.2173 179.174 92.292 179.323 92.292H180.123C180.592 92.292 180.88 92.0413 180.987 91.54L181.147 90.74C181.19 90.58 181.28 90.5107 181.419 90.532C181.536 90.5533 181.595 90.644 181.595 90.804V94.404C181.595 94.564 181.536 94.6547 181.419 94.676C181.28 94.6973 181.19 94.628 181.147 94.468L180.987 93.684C180.912 93.3107 180.806 93.0653 180.667 92.948C180.539 92.8307 180.352 92.772 180.107 92.772H179.323C179.174 92.772 179.099 92.8467 179.099 92.996V97.012C179.099 97.396 179.195 97.6733 179.387 97.844C179.59 98.0147 179.952 98.1 180.475 98.1C181.008 98.1 181.462 97.9667 181.835 97.7C182.219 97.4227 182.486 96.9107 182.635 96.164L182.827 95.22C182.859 95.0813 182.939 95.012 183.067 95.012C183.216 95.012 183.28 95.1027 183.259 95.284L183.099 98.132C183.078 98.3773 182.944 98.5 182.699 98.5H177.083ZM199.333 98.5C199.173 98.5 199.093 98.4413 199.093 98.324C199.093 98.228 199.162 98.164 199.301 98.132L199.669 98.068C200.032 98.004 200.213 97.796 200.213 97.444V88.036C200.213 87.812 200.176 87.6627 200.101 87.588C200.037 87.5133 199.893 87.4547 199.669 87.412L199.301 87.348C199.162 87.316 199.093 87.252 199.093 87.156C199.093 87.0387 199.173 86.98 199.333 86.98H202.565C203.397 86.98 204.117 87.2253 204.725 87.716C205.333 88.196 205.802 88.8733 206.133 89.748C206.464 90.6227 206.629 91.636 206.629 92.788C206.629 93.9507 206.453 94.9587 206.101 95.812C205.76 96.6653 205.274 97.3267 204.645 97.796C204.016 98.2653 203.269 98.5 202.405 98.5H199.333ZM202.469 98.084C203.418 98.084 204.138 97.6307 204.629 96.724C205.13 95.8173 205.381 94.5053 205.381 92.788C205.381 91.0813 205.141 89.7587 204.661 88.82C204.192 87.8707 203.493 87.396 202.565 87.396C201.754 87.396 201.349 87.7853 201.349 88.564V96.916C201.349 97.3427 201.434 97.6467 201.605 97.828C201.786 97.9987 202.074 98.084 202.469 98.084ZM222.661 98.5C222.501 98.5 222.421 98.4413 222.421 98.324C222.421 98.228 222.491 98.164 222.629 98.132L222.997 98.068C223.221 98.0253 223.365 97.9667 223.429 97.892C223.504 97.8173 223.541 97.668 223.541 97.444V88.036C223.541 87.812 223.504 87.6627 223.429 87.588C223.365 87.5133 223.221 87.4547 222.997 87.412L222.629 87.348C222.491 87.316 222.421 87.252 222.421 87.156C222.421 87.0387 222.501 86.98 222.661 86.98H225.557C225.717 86.98 225.797 87.0387 225.797 87.156C225.797 87.252 225.728 87.316 225.589 87.348L225.221 87.412C224.997 87.4547 224.848 87.5133 224.773 87.588C224.709 87.6627 224.677 87.812 224.677 88.036V97.444C224.677 97.668 224.709 97.8173 224.773 97.892C224.848 97.9667 224.997 98.0253 225.221 98.068L225.589 98.132C225.728 98.164 225.797 98.228 225.797 98.324C225.797 98.4413 225.717 98.5 225.557 98.5H222.661ZM240.804 98.5C240.644 98.5 240.564 98.4467 240.564 98.34C240.564 98.2333 240.638 98.164 240.788 98.132L241.028 98.084C241.241 98.0413 241.401 97.94 241.508 97.78C241.614 97.6093 241.705 97.3747 241.78 97.076L244.26 87.076C244.281 86.9693 244.313 86.9 244.356 86.868C244.409 86.836 244.457 86.82 244.5 86.82C244.553 86.82 244.601 86.836 244.644 86.868C244.697 86.9 244.734 86.9693 244.756 87.076L247.284 97.22C247.358 97.5187 247.444 97.7267 247.54 97.844C247.636 97.9613 247.785 98.0413 247.988 98.084L248.228 98.132C248.377 98.164 248.452 98.2333 248.452 98.34C248.452 98.4467 248.372 98.5 248.212 98.5H245.476C245.326 98.5 245.252 98.4413 245.252 98.324C245.252 98.2067 245.342 98.1427 245.524 98.132L245.828 98.1C246.009 98.0787 246.121 98.02 246.164 97.924C246.217 97.828 246.217 97.6627 246.164 97.428L245.556 94.948C245.492 94.6707 245.316 94.532 245.028 94.532H243.348C243.07 94.532 242.894 94.6707 242.82 94.948L242.276 97.092C242.116 97.7 242.276 98.036 242.756 98.1L242.996 98.132C243.177 98.164 243.268 98.228 243.268 98.324C243.268 98.4413 243.193 98.5 243.044 98.5H240.804ZM243.3 94.052H245.06C245.23 94.052 245.3 93.9613 245.268 93.78L244.244 89.492H244.164L243.092 93.78C243.06 93.9613 243.129 94.052 243.3 94.052ZM264.38 98.5C264.22 98.5 264.14 98.4413 264.14 98.324C264.14 98.2067 264.21 98.1427 264.348 98.132L265.068 98.02C265.282 97.988 265.426 97.9347 265.5 97.86C265.575 97.7747 265.612 97.62 265.612 97.396V87.796C265.612 87.6467 265.58 87.54 265.516 87.476C265.452 87.412 265.319 87.38 265.116 87.38C264.722 87.38 264.332 87.5507 263.948 87.892C263.564 88.2333 263.314 88.7827 263.196 89.54L263.116 90.068C263.095 90.2067 263.02 90.276 262.892 90.276C262.732 90.276 262.663 90.1853 262.684 90.004L262.828 87.108C262.85 86.8627 262.946 86.74 263.116 86.74C263.191 86.74 263.26 86.7613 263.324 86.804C263.388 86.836 263.495 86.8733 263.644 86.916C263.804 86.9587 264.055 86.98 264.396 86.98H267.964C268.306 86.98 268.551 86.9587 268.7 86.916C268.86 86.8733 268.972 86.836 269.036 86.804C269.111 86.7613 269.18 86.74 269.244 86.74C269.415 86.74 269.511 86.8627 269.532 87.108L269.676 90.004C269.698 90.1853 269.628 90.276 269.468 90.276C269.34 90.276 269.266 90.2067 269.244 90.068L269.164 89.54C269.058 88.7827 268.812 88.2333 268.428 87.892C268.044 87.5507 267.65 87.38 267.244 87.38C267.042 87.38 266.908 87.412 266.844 87.476C266.78 87.54 266.748 87.6467 266.748 87.796V97.396C266.748 97.62 266.786 97.7747 266.86 97.86C266.946 97.9347 267.09 97.988 267.292 98.02L268.012 98.132C268.151 98.1427 268.22 98.2067 268.22 98.324C268.22 98.4413 268.14 98.5 267.98 98.5H264.38ZM285.411 98.5C285.251 98.5 285.171 98.4413 285.171 98.324C285.171 98.228 285.241 98.164 285.379 98.132L285.747 98.068C285.971 98.0253 286.115 97.9667 286.179 97.892C286.254 97.8173 286.291 97.668 286.291 97.444V88.036C286.291 87.812 286.254 87.6627 286.179 87.588C286.115 87.5133 285.971 87.4547 285.747 87.412L285.379 87.348C285.241 87.316 285.171 87.252 285.171 87.156C285.171 87.0387 285.251 86.98 285.411 86.98H288.307C288.467 86.98 288.547 87.0387 288.547 87.156C288.547 87.252 288.478 87.316 288.339 87.348L287.971 87.412C287.747 87.4547 287.598 87.5133 287.523 87.588C287.459 87.6627 287.427 87.812 287.427 88.036V97.444C287.427 97.668 287.459 97.8173 287.523 97.892C287.598 97.9667 287.747 98.0253 287.971 98.068L288.339 98.132C288.478 98.164 288.547 98.228 288.547 98.324C288.547 98.4413 288.467 98.5 288.307 98.5H285.411ZM308.172 98.644C307.66 98.644 307.18 98.4947 306.732 98.196C306.284 97.8867 305.889 97.4653 305.548 96.932C305.217 96.3987 304.956 95.7747 304.764 95.06C304.582 94.3347 304.492 93.556 304.492 92.724C304.492 91.892 304.582 91.1187 304.764 90.404C304.956 89.6893 305.217 89.0653 305.548 88.532C305.889 87.988 306.284 87.5667 306.732 87.268C307.18 86.9693 307.66 86.82 308.172 86.82C308.684 86.82 309.158 86.9693 309.596 87.268C310.044 87.5667 310.438 87.988 310.78 88.532C311.121 89.0653 311.382 89.6893 311.564 90.404C311.756 91.1187 311.852 91.892 311.852 92.724C311.852 93.556 311.756 94.3347 311.564 95.06C311.382 95.7747 311.121 96.3987 310.78 96.932C310.438 97.4653 310.044 97.8867 309.596 98.196C309.158 98.4947 308.684 98.644 308.172 98.644ZM308.172 98.212C308.929 98.212 309.521 97.7587 309.948 96.852C310.374 95.9453 310.588 94.5693 310.588 92.724C310.588 90.8787 310.374 89.508 309.948 88.612C309.521 87.7053 308.929 87.252 308.172 87.252C307.425 87.252 306.833 87.7053 306.396 88.612C305.969 89.508 305.756 90.8787 305.756 92.724C305.756 94.5693 305.969 95.9453 306.396 96.852C306.833 97.7587 307.425 98.212 308.172 98.212ZM334.231 98.644C334.061 98.644 333.917 98.516 333.799 98.26L329.463 88.852C329.431 88.7773 329.389 88.7453 329.335 88.756C329.293 88.7667 329.271 88.8147 329.271 88.9V97.124C329.271 97.4227 329.319 97.652 329.415 97.812C329.522 97.9613 329.709 98.0573 329.975 98.1L330.183 98.132C330.322 98.1427 330.391 98.2067 330.391 98.324C330.391 98.4413 330.311 98.5 330.151 98.5H327.863C327.703 98.5 327.623 98.4413 327.623 98.324C327.623 98.2067 327.693 98.1427 327.831 98.132L328.039 98.1C328.317 98.0573 328.509 97.9613 328.615 97.812C328.722 97.652 328.775 97.4227 328.775 97.124V88.036C328.775 87.812 328.738 87.6627 328.663 87.588C328.599 87.5133 328.445 87.4547 328.199 87.412L327.831 87.348C327.693 87.316 327.623 87.252 327.623 87.156C327.623 87.0387 327.703 86.98 327.863 86.98H329.575C329.842 86.98 330.029 87.0973 330.135 87.332L333.911 95.636C333.943 95.7 333.981 95.7267 334.023 95.716C334.077 95.7053 334.103 95.668 334.103 95.604V88.356C334.103 88.0147 334.045 87.78 333.927 87.652C333.81 87.5133 333.661 87.428 333.479 87.396L333.191 87.348C333.053 87.316 332.983 87.252 332.983 87.156C332.983 87.0387 333.063 86.98 333.223 86.98H335.511C335.671 86.98 335.751 87.0387 335.751 87.156C335.751 87.2733 335.682 87.3373 335.543 87.348L335.335 87.38C335.058 87.4227 334.866 87.5133 334.759 87.652C334.653 87.78 334.599 88.0147 334.599 88.356V98.132C334.599 98.324 334.562 98.4573 334.487 98.532C334.423 98.6067 334.338 98.644 334.231 98.644Z" fill="white"></path></svg>