<svg xmlns="http://www.w3.org/2000/svg" width="20" height="20" viewBox="0 0 20 20" fill="none"><path d="M5.41667 0C2.42558 0 0 2.42558 0 5.41667V14.0833C0 17.0744 2.42558 19.5 5.41667 19.5H14.0833C17.0744 19.5 19.5 17.0744 19.5 14.0833V5.41667C19.5 2.42558 17.0744 0 14.0833 0H5.41667ZM16.25 2.16667C16.848 2.16667 17.3333 2.652 17.3333 3.25C17.3333 3.848 16.848 4.33333 16.25 4.33333C15.652 4.33333 15.1667 3.848 15.1667 3.25C15.1667 2.652 15.652 2.16667 16.25 2.16667ZM9.75 4.33333C12.7411 4.33333 15.1667 6.75892 15.1667 9.75C15.1667 12.7411 12.7411 15.1667 9.75 15.1667C6.75892 15.1667 4.33333 12.7411 4.33333 9.75C4.33333 6.75892 6.75892 4.33333 9.75 4.33333ZM9.75 6.5C8.88805 6.5 8.0614 6.84241 7.4519 7.4519C6.84241 8.0614 6.5 8.88805 6.5 9.75C6.5 10.612 6.84241 11.4386 7.4519 12.0481C8.0614 12.6576 8.88805 13 9.75 13C10.612 13 11.4386 12.6576 12.0481 12.0481C12.6576 11.4386 13 10.612 13 9.75C13 8.88805 12.6576 8.0614 12.0481 7.4519C11.4386 6.84241 10.612 6.5 9.75 6.5Z" fill="#7C8F87"></path></svg>