<svg xmlns="http://www.w3.org/2000/svg" width="70" height="70" viewBox="0 0 70 70" fill="none"><g filter="url(#filter0_i_158_70)"><rect width="70" height="70" rx="35" fill="#FFFEF7"></rect><rect x="1" y="1" width="68" height="68" rx="34" stroke="white" stroke-width="2"></rect><path d="M34.5248 25.2949C34.5687 25.2064 34.6364 25.1318 34.7203 25.0797C34.8042 25.0276 34.9011 25 34.9998 25C35.0986 25 35.1955 25.0276 35.2794 25.0797C35.3633 25.1318 35.431 25.2064 35.4748 25.2949L37.7848 29.9739C37.937 30.2819 38.1617 30.5483 38.4395 30.7503C38.7173 30.9524 39.04 31.084 39.3798 31.1339L44.5458 31.8899C44.6437 31.9041 44.7357 31.9454 44.8113 32.0091C44.887 32.0728 44.9433 32.1564 44.9739 32.2505C45.0045 32.3446 45.0081 32.4453 44.9844 32.5413C44.9607 32.6374 44.9107 32.7248 44.8398 32.7939L41.1038 36.4319C40.8575 36.672 40.6731 36.9684 40.5667 37.2955C40.4602 37.6227 40.4349 37.9708 40.4928 38.3099L41.3748 43.4499C41.3921 43.5477 41.3816 43.6485 41.3443 43.7406C41.3071 43.8327 41.2448 43.9125 41.1644 43.9709C41.084 44.0293 40.9888 44.0639 40.8897 44.0708C40.7906 44.0777 40.6915 44.0566 40.6038 44.0099L35.9858 41.5819C35.6816 41.4221 35.343 41.3386 34.9993 41.3386C34.6557 41.3386 34.3171 41.4221 34.0128 41.5819L29.3958 44.0099C29.3082 44.0563 29.2092 44.0772 29.1103 44.0701C29.0114 44.0631 28.9164 44.0285 28.8361 43.9701C28.7559 43.9118 28.6937 43.8321 28.6565 43.7401C28.6193 43.6482 28.6087 43.5476 28.6258 43.4499L29.5068 38.3109C29.565 37.9716 29.5398 37.6233 29.4334 37.2959C29.3269 36.9686 29.1425 36.672 28.8958 36.4319L25.1598 32.7949C25.0884 32.7259 25.0378 32.6383 25.0138 32.542C24.9898 32.4456 24.9933 32.3445 25.0239 32.2501C25.0546 32.1557 25.1111 32.0717 25.1871 32.0079C25.2631 31.944 25.3556 31.9028 25.4538 31.8889L30.6188 31.1339C30.9591 31.0844 31.2822 30.953 31.5604 30.7509C31.8386 30.5488 32.0636 30.2822 32.2158 29.9739L34.5248 25.2949Z" stroke="#A0BA9C" stroke-width="2" stroke-linecap="round" stroke-linejoin="round"></path></g><defs><filter id="filter0_i_158_70" x="0" y="0" width="70" height="70" filterUnits="userSpaceOnUse" color-interpolation-filters="sRGB"><feGaussianBlur stdDeviation="6"></feGaussianBlur></filter></defs></svg>