<svg xmlns="http://www.w3.org/2000/svg" width="70" height="70" viewBox="0 0 70 70" fill="none"><g filter="url(#filter0_i_158_74)"><rect width="70" height="70" rx="35" fill="#FFFEF7"></rect><rect x="1" y="1" width="68" height="68" rx="34" stroke="white" stroke-width="2"></rect><path d="M42 34H28C26.8954 34 26 34.8954 26 36V43C26 44.1046 26.8954 45 28 45H42C43.1046 45 44 44.1046 44 43V36C44 34.8954 43.1046 34 42 34Z" stroke="#A0BA9C" stroke-width="2" stroke-linecap="round" stroke-linejoin="round"></path><path d="M30 34V30C30 28.6739 30.5268 27.4021 31.4645 26.4645C32.4021 25.5268 33.6739 25 35 25C36.3261 25 37.5979 25.5268 38.5355 26.4645C39.4732 27.4021 40 28.6739 40 30V34" stroke="#A0BA9C" stroke-width="2" stroke-linecap="round" stroke-linejoin="round"></path></g><defs><filter id="filter0_i_158_74" x="0" y="0" width="70" height="70" filterUnits="userSpaceOnUse" color-interpolation-filters="sRGB"><feGaussianBlur stdDeviation="6"></feGaussianBlur></filter></defs></svg>