<svg xmlns="http://www.w3.org/2000/svg" width="70" height="70" viewBox="0 0 70 70" fill="none"><g filter="url(#filter0_i_158_78)"><rect width="70" height="70" rx="35" fill="#FFFEF7"></rect><rect x="1" y="1" width="68" height="68" rx="34" stroke="white" stroke-width="2"></rect><path d="M33 39C33.5 39.3 34.2 39.5 35 39.5C35.8 39.5 36.5 39.3 37 39" stroke="#A0BA9C" stroke-width="2" stroke-linecap="round" stroke-linejoin="round"></path><path d="M38 35H38.01" stroke="#A0BA9C" stroke-width="2" stroke-linecap="round" stroke-linejoin="round"></path><path d="M42.38 29.813C43.0811 30.8324 43.5645 31.9854 43.8 33.2C44.1381 33.3638 44.4233 33.6195 44.6229 33.9378C44.8224 34.2562 44.9282 34.6243 44.9282 35C44.9282 35.3757 44.8224 35.7438 44.6229 36.0622C44.4233 36.3805 44.1381 36.6362 43.8 36.8C43.3683 38.8135 42.2592 40.618 40.6577 41.9125C39.0562 43.207 37.0592 43.9132 35 43.9132C32.9408 43.9132 30.9438 43.207 29.3423 41.9125C27.7408 40.618 26.6317 38.8135 26.2 36.8C25.8619 36.6362 25.5767 36.3805 25.3771 36.0622C25.1776 35.7438 25.0718 35.3757 25.0718 35C25.0718 34.6243 25.1776 34.2562 25.3771 33.9378C25.5767 33.6195 25.8619 33.3638 26.2 33.2C26.6143 31.1705 27.7159 29.346 29.319 28.0344C30.9222 26.7227 32.9287 26.0042 35 26C37 26 38.5 27.1 38.5 28.5C38.5 29.9 37.6 31 36.5 31C35.7 31 35 30.6 35 30" stroke="#A0BA9C" stroke-width="2" stroke-linecap="round" stroke-linejoin="round"></path><path d="M32 35H32.01" stroke="#A0BA9C" stroke-width="2" stroke-linecap="round" stroke-linejoin="round"></path></g><defs><filter id="filter0_i_158_78" x="0" y="0" width="70" height="70" filterUnits="userSpaceOnUse" color-interpolation-filters="sRGB"><feGaussianBlur stdDeviation="6"></feGaussianBlur></filter></defs></svg>