<svg xmlns="http://www.w3.org/2000/svg" width="24" height="24" viewBox="0 0 24 24" fill="none"><path d="M6.26826 3H17.7325C18.5453 2.99999 19.2009 2.99999 19.7319 3.04336C20.2785 3.08803 20.7586 3.18239 21.2029 3.40873C21.9085 3.76825 22.4821 4.34193 22.8417 5.04754C22.9546 5.26918 23.0347 5.49977 23.0921 5.74309C23.1097 5.81781 23.0801 5.89527 23.019 5.94169L13.481 13.1835C12.7338 13.7508 12.5241 13.8929 12.3205 13.947C12.1101 14.0029 11.8888 14.0029 11.6784 13.947C11.4749 13.8929 11.2651 13.7508 10.5179 13.1835L0.981509 5.9429C0.920379 5.89648 0.890741 5.81906 0.908349 5.74435C0.965809 5.50056 1.04597 5.26956 1.15909 5.04754C1.51862 4.34193 2.0923 3.76825 2.7979 3.40873C3.24212 3.18239 3.72226 3.08803 4.2689 3.04336C4.79981 2.99999 5.45544 2.99999 6.26826 3Z" fill="#A0BA9C"></path><path d="M22.9303 7.89214C23.0613 7.79266 23.2493 7.88509 23.2496 8.0496C23.25 8.19961 23.25 8.35562 23.25 8.51791V15.4821C23.25 16.295 23.25 16.9506 23.2066 17.4815C23.162 18.0281 23.0676 18.5082 22.8413 18.9525C22.4817 19.6581 21.9081 20.2317 21.2025 20.5913C20.7582 20.8176 20.2781 20.912 19.7315 20.9566C19.2006 21 18.5449 21 17.7321 21H5C4.58578 21 4.25 20.6642 4.25 20.25C4.25 19.8358 4.58578 19.5 5 19.5H9.5C9.91421 19.5 10.25 19.1642 10.25 18.75C10.25 18.3358 9.91421 18 9.5 18H3.5C3.08579 18 2.75 17.6642 2.75 17.25C2.75 16.8358 3.08579 16.5 3.5 16.5H5C5.41421 16.5 5.75 16.1642 5.75 15.75C5.75 15.3358 5.41421 15 5 15H1.5C1.30109 15 1.11032 14.921 0.969671 14.7803C0.829018 14.6397 0.75 14.4489 0.75 14.25V8.51793C0.749999 8.35618 0.749998 8.20062 0.750339 8.05103C0.750714 7.88651 0.938705 7.79407 1.06973 7.89356L9.71664 14.4589C10.3044 14.906 10.7648 15.2563 11.2927 15.3966C11.7556 15.5196 12.2425 15.5196 12.7054 15.3966C13.2333 15.2563 13.6937 14.906 14.2815 14.4589L22.9303 7.89214Z" fill="#A0BA9C"></path></svg>