<svg xmlns="http://www.w3.org/2000/svg" width="60" height="60" viewBox="0 0 60 60" fill="none"><rect width="60" height="60" rx="12" fill="black"></rect><path fill-rule="evenodd" clip-rule="evenodd" d="M35.8956 20.0348C36.2792 19.7231 36.8103 19.6667 37.2508 19.8908C37.3903 19.9618 37.5253 20.08 37.7237 20.2538L38.4028 20.8481C38.4585 20.8968 38.4884 20.923 38.516 20.9479C39.9696 22.2566 40.5751 24.2649 40.0872 26.159C40.0779 26.195 40.0648 26.2432 40.0402 26.3334L40.0274 26.38C39.5686 28.0584 38.8431 29.6523 37.8789 31.1006L37.8478 31.1471C36.0767 33.7996 33.7996 36.0766 31.1471 37.8478L31.1006 37.8788C29.6523 38.8431 28.0584 39.5685 26.3801 40.0273L26.3347 40.0397C26.2437 40.0645 26.1953 40.0777 26.1592 40.087C24.2651 40.575 22.2568 39.9695 20.9481 38.5159C20.9232 38.4883 20.897 38.4583 20.8481 38.4025L20.2514 37.7206C20.0775 37.522 19.9592 37.3869 19.8881 37.2471C19.6652 36.8084 19.7203 36.2798 20.029 35.8966C20.1274 35.7744 20.2711 35.6666 20.4822 35.5082L25.094 32.0451L25.0999 32.0412L25.1015 32.04C25.197 31.9683 25.28 31.906 25.3528 31.8597C25.4301 31.8106 25.512 31.7687 25.6082 31.7488C25.7527 31.7188 25.9028 31.7321 26.0398 31.7871C26.1309 31.8237 26.2042 31.8793 26.2716 31.9413C26.3351 31.9997 26.4058 32.0757 26.4872 32.1632L28.348 34.1624C29.8243 33.3826 30.9227 32.6265 31.8283 31.7208C32.7341 30.815 33.4569 29.7499 34.1699 28.3407L32.2399 26.3322C32.1616 26.2508 32.0934 26.1798 32.0411 26.1165C31.9855 26.0491 31.9361 25.9766 31.9044 25.8883C31.8567 25.7551 31.8477 25.6111 31.8784 25.4729C31.8987 25.3813 31.9388 25.3033 31.9855 25.2295C32.0295 25.1601 32.0883 25.0812 32.1558 24.9906L35.5095 20.4889C35.667 20.2774 35.7742 20.1335 35.8956 20.0348Z" fill="white"></path></svg>