<svg xmlns="http://www.w3.org/2000/svg" width="32" height="32" viewBox="0 0 32 32" fill="none"><path d="M10.2683 7H21.7325C22.5453 6.99999 23.2009 6.99999 23.7319 7.04336C24.2785 7.08803 24.7586 7.18239 25.2029 7.40873C25.9085 7.76825 26.4821 8.34193 26.8417 9.04754C26.9546 9.26918 27.0347 9.49977 27.0921 9.74309C27.1097 9.81781 27.0801 9.89527 27.019 9.94169L17.481 17.1835C16.7338 17.7508 16.5241 17.8929 16.3205 17.947C16.1101 18.0029 15.8888 18.0029 15.6784 17.947C15.4749 17.8929 15.2651 17.7508 14.5179 17.1835L4.98151 9.9429C4.92038 9.89648 4.89074 9.81906 4.90835 9.74435C4.96581 9.50056 5.04597 9.26956 5.15909 9.04754C5.51862 8.34193 6.0923 7.76825 6.7979 7.40873C7.24212 7.18239 7.72226 7.08803 8.2689 7.04336C8.79981 6.99999 9.45544 6.99999 10.2683 7Z" fill="#A0BA9C"></path><path d="M26.9303 11.8921C27.0613 11.7927 27.2493 11.8851 27.2496 12.0496C27.25 12.1996 27.25 12.3556 27.25 12.5179V19.4821C27.25 20.295 27.25 20.9506 27.2066 21.4815C27.162 22.0281 27.0676 22.5082 26.8413 22.9525C26.4817 23.6581 25.9081 24.2317 25.2025 24.5913C24.7582 24.8176 24.2781 24.912 23.7315 24.9566C23.2006 25 22.5449 25 21.7321 25H9C8.58578 25 8.25 24.6642 8.25 24.25C8.25 23.8358 8.58578 23.5 9 23.5H13.5C13.9142 23.5 14.25 23.1642 14.25 22.75C14.25 22.3358 13.9142 22 13.5 22H7.5C7.08579 22 6.75 21.6642 6.75 21.25C6.75 20.8358 7.08579 20.5 7.5 20.5H9C9.41421 20.5 9.75 20.1642 9.75 19.75C9.75 19.3358 9.41421 19 9 19H5.5C5.30109 19 5.11032 18.921 4.96967 18.7803C4.82902 18.6397 4.75 18.4489 4.75 18.25V12.5179C4.75 12.3562 4.75 12.2006 4.75034 12.051C4.75071 11.8865 4.93871 11.7941 5.06973 11.8936L13.7166 18.4589C14.3044 18.906 14.7648 19.2563 15.2927 19.3966C15.7556 19.5196 16.2425 19.5196 16.7054 19.3966C17.2333 19.2563 17.6937 18.906 18.2815 18.4589L26.9303 11.8921Z" fill="#A0BA9C"></path></svg>