<svg xmlns="http://www.w3.org/2000/svg" width="56" height="55" viewBox="0 0 56 55" fill="none"><rect x="0.333374" width="55" height="55" rx="10" fill="#E3D3BC"></rect><path d="M31.8334 31.5L34.8334 23.5L37.8334 31.5C36.9634 32.15 35.9134 32.5 34.8334 32.5C33.7534 32.5 32.7034 32.15 31.8334 31.5Z" stroke="#232F22" stroke-width="2" stroke-linecap="round" stroke-linejoin="round"></path><path d="M17.8334 31.5L20.8334 23.5L23.8334 31.5C22.9634 32.15 21.9134 32.5 20.8334 32.5C19.7534 32.5 18.7034 32.15 17.8334 31.5Z" stroke="#232F22" stroke-width="2" stroke-linecap="round" stroke-linejoin="round"></path><path d="M22.8334 36.5H32.8334" stroke="#232F22" stroke-width="2" stroke-linecap="round" stroke-linejoin="round"></path><path d="M27.8334 18.5V36.5" stroke="#232F22" stroke-width="2" stroke-linecap="round" stroke-linejoin="round"></path><path d="M18.8334 22.5H20.8334C22.8334 22.5 25.8334 21.5 27.8334 20.5C29.8334 21.5 32.8334 22.5 34.8334 22.5H36.8334" stroke="#232F22" stroke-width="2" stroke-linecap="round" stroke-linejoin="round"></path></svg>