<svg xmlns="http://www.w3.org/2000/svg" width="60" height="60" viewBox="0 0 60 60" fill="none"><rect width="60" height="60" rx="12" fill="black"></rect><path d="M24.2683 21H35.7325C36.5453 21 37.2009 21 37.7319 21.0434C38.2785 21.088 38.7586 21.1824 39.2029 21.4087C39.9085 21.7683 40.4821 22.3419 40.8417 23.0475C40.9546 23.2692 41.0347 23.4998 41.0921 23.7431C41.1097 23.8178 41.0801 23.8953 41.019 23.9417L31.481 31.1835C30.7338 31.7508 30.5241 31.8929 30.3205 31.947C30.1101 32.0029 29.8888 32.0029 29.6784 31.947C29.4749 31.8929 29.2651 31.7508 28.5179 31.1835L18.9815 23.9429C18.9204 23.8965 18.8907 23.8191 18.9083 23.7444C18.9658 23.5006 19.046 23.2696 19.1591 23.0475C19.5186 22.3419 20.0923 21.7683 20.7979 21.4087C21.2421 21.1824 21.7223 21.088 22.2689 21.0434C22.7998 21 23.4554 21 24.2683 21Z" fill="white"></path><path d="M40.9303 25.8917C41.0613 25.7922 41.2493 25.8846 41.2496 26.0491C41.25 26.1991 41.25 26.3551 41.25 26.5174V33.4816C41.25 34.2945 41.25 34.9501 41.2066 35.481C41.162 36.0276 41.0676 36.5077 40.8413 36.952C40.4817 37.6576 39.9081 38.2312 39.2025 38.5908C38.7582 38.8171 38.2781 38.9115 37.7315 38.9561C37.2006 38.9995 36.5449 38.9995 35.7321 38.9995H23C22.5858 38.9995 22.25 38.6637 22.25 38.2495C22.25 37.8353 22.5858 37.4995 23 37.4995H27.5C27.9142 37.4995 28.25 37.1637 28.25 36.7495C28.25 36.3353 27.9142 35.9995 27.5 35.9995H21.5C21.0858 35.9995 20.75 35.6637 20.75 35.2495C20.75 34.8353 21.0858 34.4995 21.5 34.4995H23C23.4142 34.4995 23.75 34.1637 23.75 33.7495C23.75 33.3353 23.4142 32.9995 23 32.9995H19.5C19.3011 32.9995 19.1103 32.9205 18.9697 32.7798C18.829 32.6392 18.75 32.4484 18.75 32.2495V26.5174C18.75 26.3557 18.75 26.2001 18.7503 26.0505C18.7507 25.886 18.9387 25.7936 19.0697 25.8931L27.7166 32.4584C28.3044 32.9055 28.7648 33.2558 29.2927 33.3961C29.7556 33.5191 30.2425 33.5191 30.7054 33.3961C31.2333 33.2558 31.6937 32.9055 32.2815 32.4584L40.9303 25.8917Z" fill="white"></path></svg>