<svg xmlns="http://www.w3.org/2000/svg" width="32" height="32" viewBox="0 0 32 32" fill="none"><path fill-rule="evenodd" clip-rule="evenodd" d="M21.8952 6.03501C22.2788 5.72336 22.8099 5.66695 23.2504 5.89108C23.3899 5.96206 23.5249 6.08027 23.7233 6.254L24.4024 6.84834C24.4581 6.89706 24.488 6.92325 24.5156 6.9481C25.9692 8.25686 26.5747 10.2652 26.0868 12.1593C26.0775 12.1952 26.0644 12.2434 26.0398 12.3337L26.027 12.3803C25.5682 14.0586 24.8427 15.6525 23.8785 17.1008L23.8474 17.1473C22.0763 19.7998 19.7992 22.0768 17.1467 23.848L17.1002 23.879C15.6519 24.8433 14.058 25.5687 12.3796 26.0275L12.3342 26.0399C12.2432 26.0647 12.1948 26.0779 12.1587 26.0872C10.2646 26.5752 8.25635 25.9697 6.94759 24.5161C6.92271 24.4885 6.89648 24.4585 6.84764 24.4027L6.25094 23.7208C6.07704 23.5222 5.9587 23.3871 5.88765 23.2473C5.66468 22.8086 5.71983 22.28 6.02854 21.8968C6.12691 21.7746 6.27058 21.6668 6.4817 21.5084L11.0935 18.0453L11.0994 18.0414L11.101 18.0402C11.1966 17.9685 11.2795 17.9062 11.3523 17.8599C11.4296 17.8108 11.5115 17.7689 11.6077 17.749C11.7522 17.719 11.9023 17.7323 12.0393 17.7873C12.1304 17.8239 12.2037 17.8795 12.2711 17.9415C12.3346 17.9999 12.4053 18.0759 12.4867 18.1634L14.3476 20.1626C15.8239 19.3828 16.9223 18.6267 17.8279 17.721C18.7337 16.8152 19.4565 15.7501 20.1695 14.3409L18.2395 12.3325C18.1612 12.251 18.093 12.1801 18.0407 12.1167C17.9851 12.0493 17.9357 11.9769 17.904 11.8885C17.8563 11.7553 17.8473 11.6113 17.878 11.4732C17.8983 11.3816 17.9384 11.3036 17.9851 11.2297C18.0291 11.1603 18.0879 11.0815 18.1554 10.9909L21.5091 6.48916C21.6666 6.27763 21.7738 6.1337 21.8952 6.03501Z" fill="#A0BA9C"></path></svg>