<svg xmlns="http://www.w3.org/2000/svg" width="32" height="32" viewBox="0 0 32 32" fill="none"><path fill-rule="evenodd" clip-rule="evenodd" d="M12.367 5.25H19.633C20.7251 5.24999 21.5906 5.24999 22.2883 5.30699C23.0017 5.36527 23.6053 5.48688 24.1565 5.76772C25.0502 6.22312 25.7769 6.94978 26.2323 7.84355C26.5131 8.39472 26.6347 8.99835 26.693 9.71173C26.75 10.4094 26.75 11.2748 26.75 12.367V19.633C26.75 20.7252 26.75 21.5906 26.693 22.2883C26.6347 23.0017 26.5131 23.6053 26.2323 24.1565C25.7769 25.0502 25.0502 25.7769 24.1565 26.2323C23.6053 26.5131 23.0017 26.6347 22.2883 26.693C21.5906 26.75 20.7252 26.75 19.633 26.75H12.367C11.2748 26.75 10.4094 26.75 9.71173 26.693C8.99835 26.6347 8.39472 26.5131 7.84355 26.2323C6.94978 25.7769 6.22312 25.0502 5.76772 24.1565C5.48688 23.6053 5.36527 23.0017 5.30699 22.2883C5.24999 21.5906 5.24999 20.7252 5.25 19.633V12.367C5.24999 11.2749 5.24999 10.4094 5.30699 9.71173C5.36527 8.99834 5.48688 8.39472 5.76772 7.84355C6.22312 6.94978 6.94978 6.22312 7.84355 5.76772C8.39472 5.48688 8.99835 5.36527 9.71173 5.30699C10.4094 5.24999 11.2749 5.24999 12.367 5.25ZM19.9131 10.6003C20.8562 10.1781 21.8219 11.1438 21.3997 12.0869L17.4834 20.8343C17.0182 21.8735 15.4805 21.6433 15.3401 20.5134L14.9141 17.0858L11.4866 16.6599C10.3567 16.5194 10.1265 14.9818 11.1657 14.5166L19.9131 10.6003Z" fill="#A0BA9C"></path></svg>