<svg xmlns="http://www.w3.org/2000/svg" width="55" height="55" viewBox="0 0 55 55" fill="none"><rect width="55" height="55" rx="10" fill="#E3D3BC"></rect><path d="M27.72 17.5H27.28C26.7496 17.5 26.2409 17.7107 25.8658 18.0858C25.4907 18.4609 25.28 18.9696 25.28 19.5V19.68C25.2796 20.0307 25.1871 20.3752 25.0115 20.6788C24.836 20.9825 24.5837 21.2346 24.28 21.41L23.85 21.66C23.546 21.8355 23.2011 21.9279 22.85 21.9279C22.4989 21.9279 22.154 21.8355 21.85 21.66L21.7 21.58C21.2411 21.3153 20.6958 21.2434 20.184 21.3803C19.6722 21.5172 19.2356 21.8515 18.97 22.31L18.75 22.69C18.4853 23.1489 18.4134 23.6942 18.5503 24.206C18.6872 24.7178 19.0215 25.1544 19.48 25.42L19.63 25.52C19.9323 25.6945 20.1836 25.9451 20.3591 26.2468C20.5345 26.5486 20.6279 26.891 20.63 27.24V27.75C20.6314 28.1024 20.5397 28.449 20.364 28.7545C20.1884 29.0601 19.9352 29.3138 19.63 29.49L19.48 29.58C19.0215 29.8456 18.6872 30.2822 18.5503 30.794C18.4134 31.3058 18.4853 31.8511 18.75 32.31L18.97 32.69C19.2356 33.1485 19.6722 33.4828 20.184 33.6197C20.6958 33.7566 21.2411 33.6847 21.7 33.42L21.85 33.34C22.154 33.1645 22.4989 33.0721 22.85 33.0721C23.2011 33.0721 23.546 33.1645 23.85 33.34L24.28 33.59C24.5837 33.7654 24.836 34.0175 25.0115 34.3212C25.1871 34.6248 25.2796 34.9693 25.28 35.32V35.5C25.28 36.0304 25.4907 36.5391 25.8658 36.9142C26.2409 37.2893 26.7496 37.5 27.28 37.5H27.72C28.2504 37.5 28.7591 37.2893 29.1342 36.9142C29.5093 36.5391 29.72 36.0304 29.72 35.5V35.32C29.7204 34.9693 29.8129 34.6248 29.9885 34.3212C30.164 34.0175 30.4163 33.7654 30.72 33.59L31.15 33.34C31.454 33.1645 31.7989 33.0721 32.15 33.0721C32.5011 33.0721 32.846 33.1645 33.15 33.34L33.3 33.42C33.7589 33.6847 34.3042 33.7566 34.816 33.6197C35.3278 33.4828 35.7645 33.1485 36.03 32.69L36.25 32.3C36.5147 31.8411 36.5866 31.2958 36.4497 30.784C36.3128 30.2722 35.9785 29.8356 35.52 29.57L35.37 29.49C35.0648 29.3138 34.8116 29.0601 34.636 28.7545C34.4604 28.449 34.3686 28.1024 34.37 27.75V27.25C34.3686 26.8976 34.4604 26.551 34.636 26.2455C34.8116 25.9399 35.0648 25.6862 35.37 25.51L35.52 25.42C35.9785 25.1544 36.3128 24.7178 36.4497 24.206C36.5866 23.6942 36.5147 23.1489 36.25 22.69L36.03 22.31C35.7645 21.8515 35.3278 21.5172 34.816 21.3803C34.3042 21.2434 33.7589 21.3153 33.3 21.58L33.15 21.66C32.846 21.8355 32.5011 21.9279 32.15 21.9279C31.7989 21.9279 31.454 21.8355 31.15 21.66L30.72 21.41C30.4163 21.2346 30.164 20.9825 29.9885 20.6788C29.8129 20.3752 29.7204 20.0307 29.72 19.68V19.5C29.72 18.9696 29.5093 18.4609 29.1342 18.0858C28.7591 17.7107 28.2504 17.5 27.72 17.5Z" stroke="#2F392C" stroke-width="2" stroke-linecap="round" stroke-linejoin="round"></path><path d="M27.5 30.5C29.1569 30.5 30.5 29.1569 30.5 27.5C30.5 25.8431 29.1569 24.5 27.5 24.5C25.8431 24.5 24.5 25.8431 24.5 27.5C24.5 29.1569 25.8431 30.5 27.5 30.5Z" stroke="#2F392C" stroke-width="2" stroke-linecap="round" stroke-linejoin="round"></path></svg>