<svg xmlns="http://www.w3.org/2000/svg" width="56" height="55" viewBox="0 0 56 55" fill="none"><rect x="0.666626" width="55" height="55" rx="10" fill="#E3D3BC"></rect><path d="M24.9666 35.5001V31.4001L26.8666 31.6001C27.4198 31.5693 27.9432 31.34 28.3408 30.9542C28.7384 30.5684 28.9833 30.052 29.0306 29.5001V23.8001C29.0373 22.3594 28.4713 20.9751 27.4573 19.9517C26.4433 18.9284 25.0643 18.3497 23.6236 18.3431C22.183 18.3364 20.7987 18.9024 19.7753 19.9164C18.7519 20.9304 18.1733 22.3094 18.1666 23.7501C18.1666 26.5501 18.8226 26.8041 19.1666 28.3001C19.3991 29.2035 19.4091 30.1499 19.1956 31.0581L18.1666 35.5001" stroke="#232F22" stroke-width="2" stroke-linecap="round" stroke-linejoin="round"></path><path d="M35.9666 33.3C37.3724 31.894 38.1625 29.9874 38.163 27.9991C38.1636 26.0109 37.3746 24.1038 35.9696 22.697" stroke="#232F22" stroke-width="2" stroke-linecap="round" stroke-linejoin="round"></path><path d="M33.1666 30.4999C33.4938 30.1728 33.7529 29.7841 33.9288 29.3562C34.1048 28.9283 34.1943 28.4698 34.1919 28.0072C34.1896 27.5445 34.0956 27.087 33.9153 26.6609C33.735 26.2348 33.472 25.8487 33.1416 25.5249" stroke="#232F22" stroke-width="2" stroke-linecap="round" stroke-linejoin="round"></path></svg>