<svg xmlns="http://www.w3.org/2000/svg" width="24" height="24" viewBox="0 0 24 24" fill="none"><path fill-rule="evenodd" clip-rule="evenodd" d="M8.367 1.25H15.633C16.7251 1.24999 17.5906 1.24999 18.2883 1.30699C19.0017 1.36527 19.6053 1.48688 20.1565 1.76772C21.0502 2.22312 21.7769 2.94978 22.2323 3.84355C22.5131 4.39472 22.6347 4.99835 22.693 5.71173C22.75 6.40935 22.75 7.27484 22.75 8.36698V15.633C22.75 16.7252 22.75 17.5906 22.693 18.2883C22.6347 19.0017 22.5131 19.6053 22.2323 20.1565C21.7769 21.0502 21.0502 21.7769 20.1565 22.2323C19.6053 22.5131 19.0017 22.6347 18.2883 22.693C17.5906 22.75 16.7252 22.75 15.633 22.75H8.36698C7.27484 22.75 6.40935 22.75 5.71173 22.693C4.99835 22.6347 4.39472 22.5131 3.84355 22.2323C2.94978 21.7769 2.22312 21.0502 1.76772 20.1565C1.48688 19.6053 1.36527 19.0017 1.30699 18.2883C1.24999 17.5906 1.24999 16.7252 1.25 15.633V8.36699C1.24999 7.27486 1.24999 6.40935 1.30699 5.71173C1.36527 4.99834 1.48688 4.39472 1.76772 3.84355C2.22312 2.94978 2.94978 2.22312 3.84355 1.76772C4.39472 1.48688 4.99835 1.36527 5.71173 1.30699C6.40935 1.24999 7.27486 1.24999 8.367 1.25ZM15.9131 6.60033C16.8562 6.17812 17.8219 7.14383 17.3997 8.08688L13.4834 16.8343C13.0182 17.8735 11.4805 17.6433 11.3401 16.5134L10.9141 13.0858L7.48663 12.6599C6.35674 12.5194 6.12646 10.9818 7.16566 10.5166L15.9131 6.60033Z" fill="#A0BA9C"></path></svg>