<svg xmlns="http://www.w3.org/2000/svg" width="24" height="24" viewBox="0 0 24 24" fill="none"><path fill-rule="evenodd" clip-rule="evenodd" d="M17.8952 2.03501C18.2788 1.72336 18.8099 1.66695 19.2504 1.89108C19.3899 1.96206 19.5249 2.08027 19.7233 2.254L20.4024 2.84834C20.4581 2.89706 20.488 2.92325 20.5156 2.9481C21.9692 4.25686 22.5747 6.26516 22.0868 8.15926C22.0775 8.19522 22.0644 8.2434 22.0398 8.33366L22.027 8.38025C21.5682 10.0586 20.8427 11.6525 19.8785 13.1008L19.8474 13.1473C18.0763 15.7998 15.7992 18.0768 13.1467 19.848L13.1002 19.879C11.6519 20.8433 10.058 21.5687 8.3796 22.0275L8.33418 22.0399C8.24324 22.0647 8.19483 22.0779 8.15875 22.0872C6.26464 22.5752 4.25635 21.9697 2.94759 20.5161C2.92271 20.4885 2.89648 20.4585 2.84764 20.4027L2.25094 19.7208C2.07704 19.5222 1.9587 19.3871 1.88765 19.2473C1.66468 18.8086 1.71983 18.28 2.02854 17.8968C2.12691 17.7746 2.27058 17.6668 2.4817 17.5084L7.09355 14.0453L7.09939 14.0414L7.10099 14.0402C7.19656 13.9685 7.27949 13.9062 7.35232 13.8599C7.42959 13.8108 7.5115 13.7689 7.60767 13.749C7.75218 13.719 7.90232 13.7323 8.03928 13.7873C8.13043 13.8239 8.20367 13.8795 8.27107 13.9415C8.3346 13.9999 8.40529 14.0759 8.48671 14.1634L10.3476 16.1626C11.8239 15.3828 12.9223 14.6267 13.8279 13.721C14.7337 12.8152 15.4565 11.7501 16.1695 10.3409L14.2395 8.33247C14.1612 8.25101 14.093 8.18006 14.0407 8.1167C13.9851 8.0493 13.9357 7.97688 13.904 7.88854C13.8563 7.75531 13.8473 7.61131 13.878 7.47316C13.8983 7.38157 13.9384 7.30355 13.9851 7.22973C14.0291 7.16034 14.0879 7.08147 14.1554 6.99087L17.5091 2.48916C17.6666 2.27763 17.7738 2.1337 17.8952 2.03501Z" fill="#A0BA9C"></path></svg>